<svg xmlns="http://www.w3.org/2000/svg" width="1257" height="171" fill="none"><mask id="a" width="1259" height="173" x="-1" y="-1" fill="#000" maskUnits="userSpaceOnUse"><path fill="#fff" d="M-1-1h1259v173H-1z"/><path d="M114.35 100.725c-8.4 17.85-24.675 32.9-51.275 32.9-34.65 0-62.125-22.575-62.125-60.9 0-37.975 27.125-64.05 64.925-64.05 13.825 0 23.625 4.025 31.5 8.225l4.9-7h6.825l.7 45.325h-7.35c-8.575-26.775-18.9-39.2-35.7-39.2-21.35 0-33.425 19.775-33.425 53.55 0 37.1 15.05 52.85 36.4 52.85 18.2 0 28.875-9.1 38.85-24.5l5.775 2.8Zm57.084-14.7c-12.425 4.725-21.7 8.925-21.7 22.575 0 8.75 4.2 12.6 9.45 12.6 5.95 0 8.75-2.8 11.55-6.475l.7-28.7Zm42.875 22.4c-.7 16.625-8.05 25.025-22.75 25.025-11.375 0-16.45-4.725-19.95-11.55h-.525c-5.775 6.3-12.6 11.725-26.425 11.725-12.075 0-21.35-8.575-21.35-20.125 0-15.05 8.575-20.3 17.5-23.625 10.15-3.85 23.8-7.175 30.45-10.85V71.15c0-5.775-.7-17.675-10.85-17.675-4.55 0-7.175 1.75-8.925 3.325.175 2.625 2.275 6.825 2.275 11.55 0 3.85-4.725 9.975-14 9.975s-12.6-5.95-12.6-11.725c0-11.025 19.075-19.075 34.475-19.075 19.25 0 34.825 3.15 34.825 26.775 0 15.925-1.05 34.3-1.05 40.075 0 2.1.7 8.05 6.3 8.05 4.55 0 6.125-7.525 6.3-14h6.3Zm71.737-1.925c0 17.675-15.4 27.3-34.475 27.3-11.2 0-21-4.725-24.675-7.35l-2.625 5.6h-5.775l-.875-29.925h5.25c3.15 9.975 13.825 25.2 27.475 25.2 8.925 0 13.825-4.725 13.825-12.775 0-8.925-8.225-11.725-20.475-15.75-11.2-3.675-23.8-9.975-23.8-26.25 0-13.65 11.725-25.025 31.675-25.025 8.05 0 16.625 2.45 21.7 4.9l1.925-4.9h5.6l1.225 27.3h-5.25c-3.325-11.2-12.6-20.65-22.4-20.65-7.525 0-12.6 4.55-12.6 10.675 0 8.75 6.3 10.85 20.125 15.225 14.175 4.55 24.15 12.075 24.15 26.425Zm91.933 4.9c-7 12.425-21 22.225-37.975 22.225-30.275 0-44.1-19.25-44.1-43.575 0-22.225 15.575-42.525 42.175-42.525 27.65 0 37.625 16.1 37.625 34.65v4.9h-53.025c0 22.75 8.05 35.175 26.075 35.175 10.5 0 17.675-5.25 23.45-15.05l5.775 4.2Zm-28.7-30.975c0-13.65-2.1-26.425-12.25-26.425-8.225 0-14 8.925-14.35 26.775l26.6-.35Zm122.239-25.55c-4.725.875-9.8 3.675-12.6 9.975-7.175 16.45-14 33.25-19.25 46.375-4.025 9.975-7.525 18.375-9.275 22.4-15.225 34.3-23.625 37.1-36.05 37.1-6.125 0-15.925-4.025-15.925-15.05 0-5.95 4.725-13.125 12.6-13.125 4.9 0 11.9 2.275 11.9 11.2v5.425c9.45-1.925 18.025-18.725 20.65-25.55-8.75-19.075-26.775-57.925-32.2-69.65-2.1-4.375-7.525-8.05-12.6-8.75V49.8h48.3v5.6c-4.025.175-9.975 1.225-9.975 4.025 0 .35.525 1.925 1.225 3.675 3.325 7.875 9.8 22.4 17.325 38.85h1.05c5.425-12.95 8.225-20.3 14.175-35.525.525-1.225.875-3.5.875-4.9 0-3.85-9.275-6.125-12.075-6.475V49.8h31.85v5.075Zm153.631 43.75c0 24.325-20.125 32.375-53.725 32.375h-61.075v-5.95c3.15-.175 11.55-1.05 13.825-1.925 4.2-1.575 5.425-4.725 5.425-8.575V28.975c0-3.85-1.05-6.825-5.425-8.575-3.325-1.4-10.675-2.8-13.825-2.975v-5.95h63.875c28.175 0 44.625 7.175 44.625 26.6 0 16.625-14.175 23.8-30.625 27.825v1.575c17.675 1.925 36.925 10.85 36.925 31.15ZM588.049 40c0-15.225-8.75-21.35-21.7-21.35-1.925 0-5.775.175-7.875.35v44.975h3.85c19.25 0 25.725-9.275 25.725-23.975Zm5.775 57.75c0-16.975-9.8-26.25-27.825-26.25-1.925 0-6.125.175-7.525.35v44.45c.875 4.2 6.65 7.525 13.65 7.525 12.95 0 21.7-9.45 21.7-26.075Zm118.627-33.075c0 8.4-5.25 15.225-13.125 15.225-7.175 0-12.95-3.325-12.95-11.2 0-3.85 1.05-7.35 1.4-8.575-7.875.175-13.3 6.65-14.875 9.1v46.55c0 3.85 1.75 6.3 4.9 7.7 2.8 1.225 8.75 1.925 11.55 2.1V131h-53.725v-5.425c3.15-.175 5.25-.525 7.7-1.225 3.325-1.05 4.55-3.85 4.55-7.7V67.825c-.35-3.675-1.925-7.35-4.725-9.275-2.1-1.4-5.6-2.275-8.75-2.45v-5.25l37.275-2.1 1.225 1.225V61.7h.35c7.35-9.1 14.875-13.825 23.45-13.825 9.275 0 15.75 6.825 15.75 16.8Zm51.83 21.35c-12.425 4.725-21.7 8.925-21.7 22.575 0 8.75 4.2 12.6 9.45 12.6 5.95 0 8.75-2.8 11.55-6.475l.7-28.7Zm42.875 22.4c-.7 16.625-8.05 25.025-22.75 25.025-11.375 0-16.45-4.725-19.95-11.55h-.525c-5.775 6.3-12.6 11.725-26.425 11.725-12.075 0-21.35-8.575-21.35-20.125 0-15.05 8.575-20.3 17.5-23.625 10.15-3.85 23.8-7.175 30.45-10.85V71.15c0-5.775-.7-17.675-10.85-17.675-4.55 0-7.175 1.75-8.925 3.325.175 2.625 2.275 6.825 2.275 11.55 0 3.85-4.725 9.975-14 9.975s-12.6-5.95-12.6-11.725c0-11.025 19.075-19.075 34.475-19.075 19.25 0 34.825 3.15 34.825 26.775 0 15.925-1.05 34.3-1.05 40.075 0 2.1.7 8.05 6.3 8.05 4.55 0 6.125-7.525 6.3-14h6.3Zm63.357 6.825V67.825c-1.575-5.425-5.425-13.125-14.7-13.125-10.15 0-18.2 13.475-18.2 36.225 0 16.45 5.25 32.2 18.9 32.2 6.65 0 10.325-3.15 14-7.875Zm39.9 14-38.5 2.45-1.225-1.225v-7.525l-.7-.175c-3.85 4.025-12.6 10.85-23.45 10.85-20.475 0-36.4-17.15-36.4-44.1 0-24.675 18.9-42 39.2-42 10.85 0 19.075 4.025 21.175 5.075V21.45c-.35-3.675-1.75-8.225-4.55-10.15-3.325-2.275-10.5-3.325-15.575-3.675V2.55l43.925-2.1 1.225 1.225V113.5c0 4.2 1.575 6.65 4.375 8.575 2.1 1.4 7.35 1.75 10.5 1.925v5.25Zm83.044-111.125c0 4.725-3.85 12.075-11.9 12.075-5.425 0-13.825-2.8-13.825-10.5 0-4.375 1.225-8.05 1.575-11.55-.525-.875-1.225-1.4-2.8-1.4-9.975 0-14.175 10.325-14.7 35.175v8.225h21.875v8.05h-21.7v57.575c0 3.85 1.75 6.475 4.9 7.7 2.625 1.05 8.4 1.925 11.55 2.1V131h-53.9v-5.425c3.15-.175 5.25-.525 7.7-1.225 3.325-1.05 4.725-3.85 4.725-7.7V58.2h-17.325v-8.05h17.325v-2.975c0-14.175 3.325-25.9 12.075-35 7.175-7.525 16.8-11.9 29.75-11.9 19.6 0 24.675 9.625 24.675 17.85Zm73.073 71.925c0 24.325-15.4 43.575-45.32 43.575-24.155 0-44.105-16.1-44.105-43.05 0-25.375 17.325-43.05 44.805-43.05 28 0 44.62 17.85 44.62 42.525Zm-27.82-.175c0-18.2-3.33-36.225-16.63-36.225-14.17 0-17.15 19.25-17.15 35.875 0 20.65 4.2 37.975 17.15 37.975 12.25 0 16.63-16.8 16.63-37.625Zm114.15-25.2c0 8.4-5.25 15.225-13.13 15.225-7.17 0-12.95-3.325-12.95-11.2 0-3.85 1.05-7.35 1.4-8.575-7.87.175-13.3 6.65-14.87 9.1v46.55c0 3.85 1.75 6.3 4.9 7.7 2.8 1.225 8.75 1.925 11.55 2.1V131h-53.73v-5.425c3.15-.175 5.25-.525 7.7-1.225 3.33-1.05 4.55-3.85 4.55-7.7V67.825c-.35-3.675-1.92-7.35-4.72-9.275-2.1-1.4-5.6-2.275-8.75-2.45v-5.25l37.27-2.1 1.23 1.225V61.7h.35c7.35-9.1 14.87-13.825 23.45-13.825 9.27 0 15.75 6.825 15.75 16.8Zm64.06 50.575V67.825c-1.57-5.425-5.42-13.125-14.7-13.125-10.15 0-18.2 13.475-18.2 36.225 0 16.45 5.25 32.2 18.9 32.2 6.65 0 10.33-3.15 14-7.875Zm39.9 14-38.5 2.45-1.22-1.225v-7.525l-.7-.175c-3.85 4.025-12.6 10.85-23.45 10.85-20.48 0-36.4-17.15-36.4-44.1 0-24.675 18.9-42 39.2-42 10.85 0 19.07 4.025 21.17 5.075V21.45c-.35-3.675-1.75-8.225-4.55-10.15-3.32-2.275-10.5-3.325-15.57-3.675V2.55l43.92-2.1 1.23 1.225V113.5c0 4.2 1.57 6.65 4.37 8.575 2.1 1.4 7.35 1.75 10.5 1.925v5.25Z"/></mask><path fill="#000" d="M114.35 100.725c-8.4 17.85-24.675 32.9-51.275 32.9-34.65 0-62.125-22.575-62.125-60.9 0-37.975 27.125-64.05 64.925-64.05 13.825 0 23.625 4.025 31.5 8.225l4.9-7h6.825l.7 45.325h-7.35c-8.575-26.775-18.9-39.2-35.7-39.2-21.35 0-33.425 19.775-33.425 53.55 0 37.1 15.05 52.85 36.4 52.85 18.2 0 28.875-9.1 38.85-24.5l5.775 2.8Zm57.084-14.7c-12.425 4.725-21.7 8.925-21.7 22.575 0 8.75 4.2 12.6 9.45 12.6 5.95 0 8.75-2.8 11.55-6.475l.7-28.7Zm42.875 22.4c-.7 16.625-8.05 25.025-22.75 25.025-11.375 0-16.45-4.725-19.95-11.55h-.525c-5.775 6.3-12.6 11.725-26.425 11.725-12.075 0-21.35-8.575-21.35-20.125 0-15.05 8.575-20.3 17.5-23.625 10.15-3.85 23.8-7.175 30.45-10.85V71.15c0-5.775-.7-17.675-10.85-17.675-4.55 0-7.175 1.75-8.925 3.325.175 2.625 2.275 6.825 2.275 11.55 0 3.85-4.725 9.975-14 9.975s-12.6-5.95-12.6-11.725c0-11.025 19.075-19.075 34.475-19.075 19.25 0 34.825 3.15 34.825 26.775 0 15.925-1.05 34.3-1.05 40.075 0 2.1.7 8.05 6.3 8.05 4.55 0 6.125-7.525 6.3-14h6.3Zm71.737-1.925c0 17.675-15.4 27.3-34.475 27.3-11.2 0-21-4.725-24.675-7.35l-2.625 5.6h-5.775l-.875-29.925h5.25c3.15 9.975 13.825 25.2 27.475 25.2 8.925 0 13.825-4.725 13.825-12.775 0-8.925-8.225-11.725-20.475-15.75-11.2-3.675-23.8-9.975-23.8-26.25 0-13.65 11.725-25.025 31.675-25.025 8.05 0 16.625 2.45 21.7 4.9l1.925-4.9h5.6l1.225 27.3h-5.25c-3.325-11.2-12.6-20.65-22.4-20.65-7.525 0-12.6 4.55-12.6 10.675 0 8.75 6.3 10.85 20.125 15.225 14.175 4.55 24.15 12.075 24.15 26.425Zm91.933 4.9c-7 12.425-21 22.225-37.975 22.225-30.275 0-44.1-19.25-44.1-43.575 0-22.225 15.575-42.525 42.175-42.525 27.65 0 37.625 16.1 37.625 34.65v4.9h-53.025c0 22.75 8.05 35.175 26.075 35.175 10.5 0 17.675-5.25 23.45-15.05l5.775 4.2Zm-28.7-30.975c0-13.65-2.1-26.425-12.25-26.425-8.225 0-14 8.925-14.35 26.775l26.6-.35Zm122.239-25.55c-4.725.875-9.8 3.675-12.6 9.975-7.175 16.45-14 33.25-19.25 46.375-4.025 9.975-7.525 18.375-9.275 22.4-15.225 34.3-23.625 37.1-36.05 37.1-6.125 0-15.925-4.025-15.925-15.05 0-5.95 4.725-13.125 12.6-13.125 4.9 0 11.9 2.275 11.9 11.2v5.425c9.45-1.925 18.025-18.725 20.65-25.55-8.75-19.075-26.775-57.925-32.2-69.65-2.1-4.375-7.525-8.05-12.6-8.75V49.8h48.3v5.6c-4.025.175-9.975 1.225-9.975 4.025 0 .35.525 1.925 1.225 3.675 3.325 7.875 9.8 22.4 17.325 38.85h1.05c5.425-12.95 8.225-20.3 14.175-35.525.525-1.225.875-3.5.875-4.9 0-3.85-9.275-6.125-12.075-6.475V49.8h31.85v5.075Zm153.631 43.75c0 24.325-20.125 32.375-53.725 32.375h-61.075v-5.95c3.15-.175 11.55-1.05 13.825-1.925 4.2-1.575 5.425-4.725 5.425-8.575V28.975c0-3.85-1.05-6.825-5.425-8.575-3.325-1.4-10.675-2.8-13.825-2.975v-5.95h63.875c28.175 0 44.625 7.175 44.625 26.6 0 16.625-14.175 23.8-30.625 27.825v1.575c17.675 1.925 36.925 10.85 36.925 31.15ZM588.049 40c0-15.225-8.75-21.35-21.7-21.35-1.925 0-5.775.175-7.875.35v44.975h3.85c19.25 0 25.725-9.275 25.725-23.975Zm5.775 57.75c0-16.975-9.8-26.25-27.825-26.25-1.925 0-6.125.175-7.525.35v44.45c.875 4.2 6.65 7.525 13.65 7.525 12.95 0 21.7-9.45 21.7-26.075Zm118.627-33.075c0 8.4-5.25 15.225-13.125 15.225-7.175 0-12.95-3.325-12.95-11.2 0-3.85 1.05-7.35 1.4-8.575-7.875.175-13.3 6.65-14.875 9.1v46.55c0 3.85 1.75 6.3 4.9 7.7 2.8 1.225 8.75 1.925 11.55 2.1V131h-53.725v-5.425c3.15-.175 5.25-.525 7.7-1.225 3.325-1.05 4.55-3.85 4.55-7.7V67.825c-.35-3.675-1.925-7.35-4.725-9.275-2.1-1.4-5.6-2.275-8.75-2.45v-5.25l37.275-2.1 1.225 1.225V61.7h.35c7.35-9.1 14.875-13.825 23.45-13.825 9.275 0 15.75 6.825 15.75 16.8Zm51.83 21.35c-12.425 4.725-21.7 8.925-21.7 22.575 0 8.75 4.2 12.6 9.45 12.6 5.95 0 8.75-2.8 11.55-6.475l.7-28.7Zm42.875 22.4c-.7 16.625-8.05 25.025-22.75 25.025-11.375 0-16.45-4.725-19.95-11.55h-.525c-5.775 6.3-12.6 11.725-26.425 11.725-12.075 0-21.35-8.575-21.35-20.125 0-15.05 8.575-20.3 17.5-23.625 10.15-3.85 23.8-7.175 30.45-10.85V71.15c0-5.775-.7-17.675-10.85-17.675-4.55 0-7.175 1.75-8.925 3.325.175 2.625 2.275 6.825 2.275 11.55 0 3.85-4.725 9.975-14 9.975s-12.6-5.95-12.6-11.725c0-11.025 19.075-19.075 34.475-19.075 19.25 0 34.825 3.15 34.825 26.775 0 15.925-1.05 34.3-1.05 40.075 0 2.1.7 8.05 6.3 8.05 4.55 0 6.125-7.525 6.3-14h6.3Zm63.357 6.825V67.825c-1.575-5.425-5.425-13.125-14.7-13.125-10.15 0-18.2 13.475-18.2 36.225 0 16.45 5.25 32.2 18.9 32.2 6.65 0 10.325-3.15 14-7.875Zm39.9 14-38.5 2.45-1.225-1.225v-7.525l-.7-.175c-3.85 4.025-12.6 10.85-23.45 10.85-20.475 0-36.4-17.15-36.4-44.1 0-24.675 18.9-42 39.2-42 10.85 0 19.075 4.025 21.175 5.075V21.45c-.35-3.675-1.75-8.225-4.55-10.15-3.325-2.275-10.5-3.325-15.575-3.675V2.55l43.925-2.1 1.225 1.225V113.5c0 4.2 1.575 6.65 4.375 8.575 2.1 1.4 7.35 1.75 10.5 1.925v5.25Zm83.044-111.125c0 4.725-3.85 12.075-11.9 12.075-5.425 0-13.825-2.8-13.825-10.5 0-4.375 1.225-8.05 1.575-11.55-.525-.875-1.225-1.4-2.8-1.4-9.975 0-14.175 10.325-14.7 35.175v8.225h21.875v8.05h-21.7v57.575c0 3.85 1.75 6.475 4.9 7.7 2.625 1.05 8.4 1.925 11.55 2.1V131h-53.9v-5.425c3.15-.175 5.25-.525 7.7-1.225 3.325-1.05 4.725-3.85 4.725-7.7V58.2h-17.325v-8.05h17.325v-2.975c0-14.175 3.325-25.9 12.075-35 7.175-7.525 16.8-11.9 29.75-11.9 19.6 0 24.675 9.625 24.675 17.85Zm73.073 71.925c0 24.325-15.4 43.575-45.32 43.575-24.155 0-44.105-16.1-44.105-43.05 0-25.375 17.325-43.05 44.805-43.05 28 0 44.62 17.85 44.62 42.525Zm-27.82-.175c0-18.2-3.33-36.225-16.63-36.225-14.17 0-17.15 19.25-17.15 35.875 0 20.65 4.2 37.975 17.15 37.975 12.25 0 16.63-16.8 16.63-37.625Zm114.15-25.2c0 8.4-5.25 15.225-13.13 15.225-7.17 0-12.95-3.325-12.95-11.2 0-3.85 1.05-7.35 1.4-8.575-7.87.175-13.3 6.65-14.87 9.1v46.55c0 3.85 1.75 6.3 4.9 7.7 2.8 1.225 8.75 1.925 11.55 2.1V131h-53.73v-5.425c3.15-.175 5.25-.525 7.7-1.225 3.33-1.05 4.55-3.85 4.55-7.7V67.825c-.35-3.675-1.92-7.35-4.72-9.275-2.1-1.4-5.6-2.275-8.75-2.45v-5.25l37.27-2.1 1.23 1.225V61.7h.35c7.35-9.1 14.87-13.825 23.45-13.825 9.27 0 15.75 6.825 15.75 16.8Zm64.06 50.575V67.825c-1.57-5.425-5.42-13.125-14.7-13.125-10.15 0-18.2 13.475-18.2 36.225 0 16.45 5.25 32.2 18.9 32.2 6.65 0 10.33-3.15 14-7.875Zm39.9 14-38.5 2.45-1.22-1.225v-7.525l-.7-.175c-3.85 4.025-12.6 10.85-23.45 10.85-20.48 0-36.4-17.15-36.4-44.1 0-24.675 18.9-42 39.2-42 10.85 0 19.07 4.025 21.17 5.075V21.45c-.35-3.675-1.75-8.225-4.55-10.15-3.32-2.275-10.5-3.325-15.57-3.675V2.55l43.92-2.1 1.23 1.225V113.5c0 4.2 1.57 6.65 4.37 8.575 2.1 1.4 7.35 1.75 10.5 1.925v5.25Z"/><path fill="#000" d="m114.35 100.725.905.426.421-.895-.89-.43-.436.899ZM97.375 16.9l-.47.882.781.417.508-.726-.819-.573Zm4.9-7v-1h-.521l-.298.427.819.573Zm6.825 0 1-.015-.015-.985h-.985v1Zm.7 45.325v1h1.016l-.016-1.015-1 .015Zm-7.35 0-.952.305.222.695h.73v-1Zm6.125 42.7.436-.9-.795-.385-.48.741.839.544Zm4.87 2.374c-8.271 17.577-24.236 32.326-50.37 32.326v2c27.066 0 43.651-15.351 52.18-33.474l-1.81-.852Zm-50.37 32.326c-17.11 0-32.386-5.572-43.375-15.81-10.98-10.229-17.75-25.18-17.75-44.09h-2c0 19.415 6.967 34.914 18.387 45.554 11.411 10.63 27.198 16.346 44.738 16.346v-2ZM1.95 72.725c0-18.741 6.688-34.489 17.987-45.551C31.237 16.11 47.21 9.675 65.875 9.675v-2c-19.134 0-35.625 6.603-47.337 18.07C6.824 37.214-.05 53.49-.05 72.725h2Zm63.925-63.05c13.606 0 23.242 3.954 31.03 8.107l.94-1.764c-7.962-4.247-17.926-8.343-31.97-8.343v2Zm32.32 7.799 4.899-7-1.638-1.147-4.9 7 1.638 1.146Zm4.08-6.574h6.825v-2h-6.825v2Zm5.825-.985.7 45.325 2-.03-.7-45.325-2 .03Zm1.7 44.31h-7.35v2h7.35v-2Zm-6.398.695c-4.301-13.432-9.078-23.391-14.971-30.001-5.936-6.658-12.985-9.894-21.681-9.894v2c8.104 0 14.617 2.977 20.188 9.225 5.613 6.296 10.286 15.937 14.56 29.28l1.904-.61ZM66.75 15.025c-11.043 0-19.71 5.142-25.569 14.582-5.824 9.387-8.856 22.985-8.856 39.968h2c0-16.792 3.005-29.969 8.556-38.913 5.517-8.892 13.562-13.637 23.869-13.637v-2Zm-34.425 54.55c0 18.663 3.782 32.122 10.394 40.937 6.644 8.859 16.059 12.913 27.006 12.913v-2c-10.403 0-19.188-3.821-25.406-12.113-6.251-8.334-9.994-21.3-9.994-39.737h-2Zm37.4 53.85c9.283 0 16.701-2.326 23.07-6.647 6.35-4.307 11.598-10.557 16.619-18.31l-1.678-1.087c-4.954 7.648-10.03 13.648-16.063 17.741-6.012 4.079-13.031 6.303-21.948 6.303v2Zm38.414-24.6 5.775 2.8.872-1.8-5.775-2.8-.872 1.8Zm63.295-12.8 1 .024.036-1.488-1.391.53.355.934Zm-.7 28.7.796.606.196-.258.008-.324-1-.024Zm43.575-6.3.999.042.044-1.042h-1.043v1Zm-42.7 13.475.89-.456-.279-.544h-.611v1Zm-.525 0v-1h-.44l-.297.324.737.676Zm-30.275-32.025.349.937.006-.002-.355-.935Zm30.45-10.85.484.875.516-.285v-.59h-1ZM151.484 56.8l-.669-.743-.361.325.032.485.998-.067Zm56.525 51.625v-1h-.973l-.026.973.999.027Zm-36.93-23.335c-6.187 2.353-11.781 4.638-15.808 8.12-4.103 3.545-6.537 8.289-6.537 15.39h2c0-6.549 2.203-10.73 5.845-13.878 3.717-3.213 8.972-5.39 15.211-7.762l-.711-1.87Zm-22.345 23.51c0 4.523 1.085 7.928 2.987 10.22 1.919 2.312 4.578 3.38 7.463 3.38v-2c-2.365 0-4.431-.858-5.924-2.657-1.511-1.821-2.526-4.716-2.526-8.943h-2Zm10.45 13.6c3.148 0 5.528-.745 7.499-2.02 1.946-1.257 3.432-2.993 4.847-4.849l-1.591-1.212c-1.386 1.819-2.7 3.321-4.341 4.382-1.616 1.044-3.612 1.699-6.414 1.699v2Zm12.55-7.451.7-28.7-2-.048-.7 28.7 2 .048Zm41.576-6.366c-.345 8.194-2.324 14.183-5.869 18.12-3.521 3.909-8.727 5.947-15.882 5.947v2c7.545 0 13.364-2.162 17.368-6.609 3.981-4.42 6.026-10.943 6.381-19.374l-1.998-.084Zm-21.751 24.067c-5.547 0-9.456-1.151-12.383-3.054-2.93-1.906-4.973-4.629-6.677-7.952l-1.78.912c1.796 3.502 4.041 6.554 7.367 8.717 3.329 2.165 7.645 3.377 13.473 3.377v-2Zm-19.95-11.55h-.525v2h.525v-2Zm-1.262.324c-2.853 3.113-5.91 5.946-9.915 8.012-3.997 2.062-8.999 3.389-15.773 3.389v2c7.051 0 12.374-1.385 16.69-3.611 4.307-2.222 7.55-5.251 10.472-8.438l-1.474-1.352Zm-25.688 11.401c-11.585 0-20.35-8.187-20.35-19.125h-2c0 12.162 9.785 21.125 22.35 21.125v-2Zm-20.35-19.125c0-7.317 2.077-12.141 5.145-15.54 3.097-3.428 7.288-5.503 11.704-7.148l-.698-1.874c-4.509 1.68-9.067 3.892-12.49 7.682-3.45 3.821-5.661 9.147-5.661 16.88h2Zm16.855-22.69c5.043-1.913 10.949-3.693 16.489-5.474 5.494-1.766 10.665-3.543 14.09-5.436l-.968-1.75c-3.225 1.782-8.204 3.505-13.734 5.282-5.486 1.763-11.479 3.57-16.586 5.508l.709 1.87Zm31.095-11.785V71.15h-2v7.875h2Zm0-7.875c0-2.899-.17-7.482-1.687-11.367-.763-1.955-1.889-3.789-3.557-5.136-1.684-1.36-3.857-2.172-6.606-2.172v2c2.326 0 4.047.676 5.349 1.727 1.318 1.065 2.271 2.567 2.951 4.309 1.37 3.508 1.55 7.763 1.55 10.639h2Zm-11.85-18.675c-4.861 0-7.714 1.89-9.594 3.582l1.338 1.486c1.62-1.458 4.017-3.068 8.256-3.068v-2Zm-9.923 4.392c.051.756.236 1.587.461 2.437.221.835.515 1.807.777 2.751.541 1.948 1.035 4.073 1.035 6.295h2c0-2.503-.556-4.84-1.108-6.83-.285-1.025-.549-1.89-.771-2.728-.218-.824-.361-1.502-.398-2.059l-1.996.134Zm2.273 11.483c0 3.161-4.13 8.975-13 8.975v2c9.68 0 15-6.436 15-10.975h-2Zm-13 8.975c-4.411 0-7.269-1.406-9.035-3.366-1.785-1.981-2.565-4.65-2.565-7.359h-2c0 3.067.883 6.26 3.079 8.698 2.215 2.458 5.657 4.027 10.521 4.027v-2Zm-11.6-10.725c0-4.907 4.287-9.422 10.915-12.78 6.548-3.317 15.011-5.295 22.56-5.295v-2c-7.851 0-16.625 2.047-23.464 5.511-6.76 3.424-12.011 8.446-12.011 14.564h2Zm33.475-18.075c9.627 0 18.08.8 24.121 4.388 5.916 3.513 9.704 9.823 9.704 21.387h2c0-12.06-3.999-19.138-10.683-23.107-6.559-3.894-15.519-4.668-25.142-4.668v2ZM195.459 74.3c0 7.944-.262 16.504-.524 23.808-.262 7.284-.526 13.356-.526 16.267h2c0-2.864.261-8.867.525-16.195.262-7.309.525-15.899.525-23.88h-2Zm-1.05 40.075c0 1.122.182 3.312 1.156 5.26.493.986 1.205 1.941 2.228 2.65 1.033.715 2.328 1.14 3.916 1.14v-2c-1.212 0-2.104-.318-2.777-.785-.683-.472-1.196-1.136-1.578-1.9-.777-1.552-.945-3.387-.945-4.365h-2Zm7.3 9.05c2.955 0 4.718-2.463 5.73-5.228 1.038-2.836 1.481-6.459 1.57-9.745l-1.999-.054c-.087 3.189-.518 6.566-1.449 9.112-.957 2.615-2.257 3.915-3.852 3.915v2Zm6.3-14h6.3v-2h-6.3v2Zm18.887 17.025.581-.814-.977-.698-.51 1.088.906.424Zm-2.625 5.6v1h.635l.27-.576-.905-.424Zm-5.775 0-1 .029.028.971h.972v-1Zm-.875-29.925v-1h-1.03l.03 1.029 1-.029Zm5.25 0 .953-.301-.221-.699h-.732v1Zm20.825-3.325.312-.95h-.001l-.311.95Zm29.575-46.375-.435.9.971.47.394-1.004-.93-.366Zm1.924-4.9v-1h-.681l-.249.634.93.366Zm5.601 0 .998-.045-.042-.955h-.956v1Zm1.225 27.3v1h1.045l-.046-1.045-.999.045Zm-5.25 0-.959.285.212.715h.747v-1Zm-14.875 5.25.305-.952-.004-.001-.301.953Zm23.15 26.425c0 8.509-3.69 15.04-9.68 19.474-6.019 4.457-14.412 6.826-23.796 6.826v2c9.692 0 18.537-2.443 24.986-7.218 6.479-4.797 10.49-11.916 10.49-21.082h-2Zm-33.476 26.3c-10.955 0-20.556-4.637-24.093-7.164l-1.163 1.628c3.813 2.723 13.812 7.536 25.256 7.536v-2Zm-25.58-6.774-2.625 5.6 1.811.848 2.625-5.6-1.811-.848Zm-1.719 5.024h-5.775v2h5.775v-2Zm-4.776.971-.875-29.925-1.999.058.875 29.925 1.999-.058Zm-1.874-28.896h5.25v-2h-5.25v2Zm4.296-.699c1.62 5.13 5.153 11.562 10.026 16.726 4.868 5.158 11.194 9.173 18.403 9.173v-2c-6.442 0-12.278-3.597-16.948-8.546-4.664-4.942-8.044-11.11-9.574-15.955l-1.907.602Zm28.429 25.899c4.63 0 8.362-1.227 10.942-3.638 2.589-2.42 3.883-5.906 3.883-10.137h-2c0 3.819-1.157 6.721-3.249 8.676-2.101 1.964-5.282 3.099-9.576 3.099v2Zm14.825-13.775c0-2.394-.555-4.427-1.623-6.18-1.063-1.745-2.599-3.157-4.478-4.372-3.72-2.404-8.98-4.15-15.062-6.148l-.625 1.9c6.168 2.027 11.145 3.694 14.601 5.927 1.708 1.104 2.993 2.317 3.856 3.733.857 1.407 1.331 3.072 1.331 5.14h2Zm-21.164-16.7c-5.565-1.826-11.353-4.268-15.745-8.195-4.351-3.891-7.366-9.27-7.366-17.105h-2c0 8.44 3.284 14.349 8.033 18.595 4.708 4.21 10.82 6.756 16.455 8.605l.623-1.9Zm-23.111-25.3c0-12.94 11.105-24.025 30.674-24.025v-2c-20.33 0-32.674 11.665-32.674 26.025h2Zm30.674-24.025c7.882 0 16.31 2.408 21.266 4.8l.869-1.8c-5.193-2.508-13.916-5-22.135-5v2Zm22.631 4.266 1.925-4.9-1.861-.732-1.925 4.9 1.861.732Zm.994-4.266h5.601v-2h-5.601v2Zm4.602-.955 1.225 27.3 1.998-.09-1.226-27.3-1.997.09Zm2.224 26.255h-5.25v2h5.25v-2Zm-4.292.715c-1.71-5.76-4.95-11.077-9.041-14.965-4.088-3.884-9.091-6.4-14.317-6.4v2c4.573 0 9.107 2.209 12.939 5.85 3.827 3.637 6.887 8.645 8.502 14.085l1.917-.57Zm-23.358-21.365c-7.933 0-13.6 4.863-13.6 11.675h2c0-5.438 4.482-9.675 11.6-9.675v-2Zm-13.6 11.675c0 2.31.416 4.254 1.32 5.93.904 1.677 2.256 3.01 4.009 4.16 3.446 2.258 8.637 3.919 15.494 6.088l.603-1.906c-6.968-2.206-11.84-3.783-15-5.855-1.55-1.016-2.637-2.122-3.346-3.437-.709-1.315-1.08-2.914-1.08-4.98h-2Zm20.819 16.177c7.016 2.252 12.884 5.21 16.991 9.294 4.075 4.055 6.465 9.268 6.465 16.179h2c0-7.439-2.599-13.163-7.055-17.596-4.424-4.403-10.631-7.483-17.79-9.781l-.611 1.904ZM377.979 111.4l.872.491.437-.776-.721-.524-.588.809Zm-2.275-24.325v1h1v-1h-1Zm-53.025 0v-1h-1v1h1Zm49.525 20.125.588-.809-.89-.647-.559.948.861.508Zm-22.925-26.775.013 1 .987-.013v-.987h-1Zm-26.6.35-.999-.02-.021 1.034 1.033-.014-.013-1Zm54.429 30.134c-6.841 12.143-20.525 21.716-37.104 21.716v2c17.372 0 31.687-10.027 38.847-22.734l-1.743-.982Zm-37.104 21.716c-14.916 0-25.652-4.735-32.668-12.343-7.028-7.623-10.432-18.251-10.432-30.232h-2c0 12.344 3.509 23.504 10.962 31.587 7.466 8.098 18.779 12.988 34.138 12.988v-2Zm-43.1-42.575c0-21.754 15.205-41.525 41.175-41.525v-2c-27.23 0-43.175 20.829-43.175 43.525h2Zm41.175-41.525c13.629 0 22.739 3.962 28.452 10.053 5.725 6.104 8.173 14.49 8.173 23.597h2c0-9.443-2.539-18.382-8.714-24.965-6.187-6.597-15.889-10.685-29.911-10.685v2Zm36.625 33.65v4.9h2v-4.9h-2Zm1 3.9h-53.025v2h53.025v-2Zm-54.025 1c0 11.462 2.023 20.504 6.466 26.701 4.488 6.261 11.339 9.474 20.609 9.474v-2c-8.755 0-14.941-2.999-18.984-8.639-4.088-5.702-6.091-14.248-6.091-25.536h-2Zm27.075 36.175c5.43 0 10.044-1.361 14.05-4.016 3.992-2.647 7.325-6.542 10.262-11.526l-1.723-1.016c-2.838 4.816-5.981 8.446-9.644 10.874-3.651 2.42-7.874 3.684-12.945 3.684v2Zm22.862-15.241 5.775 4.2 1.176-1.618-5.775-4.2-1.176 1.618Zm-21.337-27.584c0-6.844-.522-13.6-2.379-18.675-.933-2.547-2.225-4.737-4.019-6.296-1.814-1.575-4.084-2.454-6.852-2.454v2c2.307 0 4.106.718 5.541 1.964 1.454 1.264 2.59 3.12 3.451 5.474 1.73 4.724 2.258 11.18 2.258 17.987h2ZM337.029 53c-4.549 0-8.346 2.497-10.999 7.203-2.63 4.665-4.174 11.546-4.35 20.552l1.999.04c.174-8.844 1.692-15.35 4.093-19.61 2.379-4.22 5.581-6.185 9.257-6.185v-2Zm-14.337 28.775 26.6-.35-.026-2-26.6.35.026 2Zm148.826-26.9.182.983.818-.151v-.832h-1Zm-12.6 9.975-.914-.406-.002.006.916.4Zm-19.25 46.375.928.374.001-.003-.929-.371Zm-9.275 22.4.914.406.003-.007-.917-.399Zm-27.475 25.55h-1v1.224l1.2-.244-.2-.98Zm20.65-25.55.934.359.151-.393-.176-.383-.909.417Zm-32.2-69.65.908-.42-.003-.006-.003-.007-.902.433Zm-12.6-8.75h-1v.871l.864.12.136-.991Zm0-5.425v-1h-1v1h1Zm48.3 0h1v-1h-1v1Zm0 5.6.044 1 .956-.042V55.4h-1Zm-8.75 7.7-.928.371.003.01.004.008.921-.389Zm17.325 38.85-.909.416.267.584h.642v-1Zm1.05 0v1h.665l.258-.614-.923-.386Zm14.175-35.525-.919-.394-.006.015-.006.015.931.364Zm-11.2-11.375h-1v.883l.876.11.124-.993Zm0-5.25v-1h-1v1h1Zm31.85 0h1v-1h-1v1Zm-.182 4.092c-4.984.923-10.373 3.895-13.332 10.552l1.828.812c2.641-5.943 7.403-8.57 11.868-9.398l-.364-1.966ZM458.002 64.45c-7.182 16.464-14.011 33.275-19.262 46.404l1.857.742c5.248-13.121 12.069-29.91 19.238-46.346l-1.833-.8Zm-19.261 46.401c-4.024 9.972-7.52 18.362-9.265 22.375l1.834.798c1.755-4.037 5.259-12.447 9.286-22.425l-1.855-.748Zm-9.262 22.368c-7.606 17.136-13.442 26.239-18.829 31.074-5.292 4.751-10.206 5.432-16.307 5.432v2c6.324 0 11.823-.719 17.643-5.943 5.726-5.14 11.702-14.587 19.321-31.751l-1.828-.812Zm-35.136 36.506c-2.876 0-6.642-.953-9.664-3.194-2.983-2.212-5.261-5.687-5.261-10.856h-2c0 5.856 2.622 9.906 6.07 12.463 3.409 2.528 7.606 3.587 10.855 3.587v-2Zm-14.925-14.05c0-5.552 4.42-12.125 11.6-12.125v-2c-8.57 0-13.6 7.777-13.6 14.125h2Zm11.6-12.125c2.323 0 5.07.543 7.207 2.067 2.084 1.486 3.693 3.974 3.693 8.133h2c0-4.766-1.891-7.878-4.532-9.761-2.587-1.845-5.79-2.439-8.368-2.439v2Zm10.9 10.2v5.425h2v-5.425h-2Zm1.2 6.405c2.603-.531 5.068-2.065 7.312-4.081 2.252-2.022 4.342-4.583 6.196-7.269 3.705-5.369 6.54-11.348 7.876-14.821l-1.867-.718c-1.289 3.352-4.055 9.186-7.656 14.404-1.799 2.607-3.789 5.034-5.885 6.916-2.103 1.89-4.254 3.177-6.375 3.609l.399 1.96Zm21.359-26.947c-8.751-19.077-26.777-57.93-32.201-69.653l-1.815.84c5.426 11.727 23.449 50.574 32.198 69.647l1.818-.834ZM392.27 63.542c-1.143-2.38-3.159-4.517-5.519-6.144-2.362-1.628-5.132-2.79-7.846-3.164l-.273 1.982c2.361.325 4.84 1.351 6.984 2.83 2.147 1.479 3.893 3.367 4.851 5.362l1.803-.866Zm-12.502-8.317V49.8h-2v5.425h2Zm-1-4.425h48.3v-2h-48.3v2Zm47.3-1v5.6h2v-5.6h-2Zm.957 4.6c-2.059.09-4.65.404-6.757 1.075-1.049.335-2.049.78-2.806 1.383-.768.613-1.369 1.464-1.369 2.567h2c0-.297.143-.627.616-1.004.485-.386 1.224-.74 2.166-1.04 1.874-.597 4.27-.896 6.237-.982l-.087-1.998Zm-10.932 5.025c0 .24.072.528.127.735.068.25.162.555.274.894.227.678.54 1.528.896 2.417l1.857-.742a42.887 42.887 0 0 1-.855-2.308 14.273 14.273 0 0 1-.24-.78c-.065-.24-.059-.28-.059-.216h-2Zm1.304 4.064c3.331 7.89 9.811 22.425 17.337 38.877l1.819-.832c-7.525-16.448-13.995-30.962-17.314-38.823l-1.842.778Zm18.246 39.461h1.05v-2h-1.05v2Zm1.973-.614c5.43-12.963 8.236-20.327 14.184-35.547l-1.863-.728c-5.952 15.23-8.747 22.566-14.166 35.503l1.845.772Zm14.171-35.517c.595-1.388.956-3.808.956-5.294h-2c0 1.314-.339 3.444-.794 4.506l1.838.788Zm.956-5.294c0-1.394-.84-2.512-1.853-3.355-1.025-.854-2.378-1.556-3.755-2.12-2.759-1.13-5.864-1.807-7.343-1.992l-.248 1.984c1.322.165 4.253.801 6.832 1.858 1.292.53 2.433 1.14 3.234 1.807.814.677 1.133 1.287 1.133 1.818h2Zm-12.075-6.475V49.8h-2v5.25h2Zm-1-4.25h31.85v-2h-31.85v2Zm30.85-1v5.075h2V49.8h-2Zm39.831 81.2h-1v1h1v-1Zm0-5.95-.055-.998-.945.052v.946h1Zm13.825-1.925-.351-.936-.008.003.359.933Zm0-102.725-.388.922.008.003.009.003.371-.928Zm-13.825-2.975h-1v.946l.945.053.055-.999Zm0-5.95v-1h-1v1h1ZM588.224 65.9l-.238-.971-.762.186v.785h1Zm0 1.575h-1v.897l.892.097.108-.994ZM558.474 19l-.083-.997-.917.077V19h1Zm0 44.975h-1v1h1v-1Zm0 7.875-.124-.992-.876.11v.882h1Zm0 44.45h-1v.103l.021.101.979-.204Zm65.675-17.675c0 5.941-1.228 10.825-3.535 14.821-2.307 3.992-5.727 7.158-10.208 9.611-9.002 4.928-22.222 6.943-38.982 6.943v2c16.84 0 30.482-2.01 39.943-7.188 4.75-2.601 8.461-6.008 10.978-10.366 2.516-4.356 3.804-9.6 3.804-15.821h-2ZM571.424 130h-61.075v2h61.075v-2Zm-60.075 1v-5.95h-2V131h2Zm-.945-4.952c1.604-.089 4.515-.354 7.311-.706a78.894 78.894 0 0 0 3.959-.587c1.157-.208 2.193-.44 2.859-.697l-.718-1.866c-.471.181-1.339.386-2.495.594a76.813 76.813 0 0 1-3.855.572c-2.761.348-5.625.608-7.171.694l.11 1.996Zm14.121-1.987c2.29-.859 3.845-2.182 4.806-3.877.948-1.672 1.268-3.614 1.268-5.634h-2c0 1.83-.293 3.388-1.007 4.647-.701 1.237-1.859 2.276-3.769 2.992l.702 1.872Zm6.074-9.511V28.975h-2v85.575h2Zm0-85.575c0-2.002-.27-3.906-1.2-5.564-.943-1.683-2.5-2.998-4.854-3.94l-.742 1.857c2.021.809 3.176 1.856 3.852 3.061.689 1.23.944 2.738.944 4.586h2Zm-6.037-9.497c-1.756-.74-4.504-1.455-7.164-2.004-2.666-.551-5.347-.956-6.994-1.047l-.11 1.997c1.503.083 4.072.466 6.7 1.008 2.634.545 5.223 1.23 6.792 1.89l.776-1.844Zm-13.213-2.053v-5.95h-2v5.95h2Zm-1-4.95h63.875v-2h-63.875v2Zm63.875 0c14.04 0 24.987 1.794 32.394 5.89 3.686 2.039 6.479 4.638 8.356 7.862 1.879 3.226 2.875 7.136 2.875 11.848h2c0-5-1.06-9.271-3.146-12.854-2.088-3.585-5.168-6.422-9.117-8.605-7.861-4.348-19.227-6.141-33.362-6.141v2Zm43.625 25.6c0 7.972-3.375 13.643-8.759 17.85-5.432 4.243-12.923 7.002-21.104 9.004l.476 1.942c8.27-2.023 16.091-4.864 21.859-9.37 5.815-4.544 9.528-10.773 9.528-19.426h-2ZM587.224 65.9v1.575h2V65.9h-2Zm.892 2.57c8.731.95 17.78 3.626 24.618 8.503 6.802 4.853 11.415 11.875 11.415 21.652h2c0-10.523-5.012-18.114-12.254-23.28-7.206-5.14-16.619-7.89-25.563-8.864l-.216 1.988Zm.933-28.47c0-7.805-2.249-13.45-6.324-17.127-4.056-3.66-9.76-5.223-16.376-5.223v2c6.334 0 11.48 1.5 15.036 4.708 3.538 3.192 5.664 8.222 5.664 15.642h2Zm-22.7-22.35c-1.957 0-5.835.177-7.958.353l.166 1.994c2.077-.174 5.899-.347 7.792-.347v-2ZM557.474 19v44.975h2V19h-2Zm1 45.975h3.85v-2h-3.85v2Zm3.85 0c9.768 0 16.513-2.353 20.8-6.78 4.281-4.42 5.925-10.72 5.925-18.195h-2c0 7.225-1.594 12.913-5.362 16.804-3.763 3.886-9.881 6.171-19.363 6.171v2Zm32.5 32.775c0-8.68-2.51-15.538-7.467-20.218-4.947-4.671-12.184-7.032-21.358-7.032v2c8.851 0 15.527 2.276 19.985 6.487 4.45 4.2 6.84 10.468 6.84 18.763h2ZM565.999 70.5c-1.94 0-6.188.175-7.649.358l.248 1.984c1.339-.167 5.491-.342 7.401-.342v-2Zm-8.525 1.35v44.45h2V71.85h-2Zm.021 44.654c.517 2.483 2.443 4.567 5.02 6.007 2.593 1.448 5.959 2.314 9.609 2.314v-2c-3.35 0-6.372-.797-8.634-2.061-2.28-1.273-3.679-2.951-4.037-4.668l-1.958.408Zm14.629 8.321c6.734 0 12.449-2.466 16.466-7.152 4.002-4.67 6.234-11.443 6.234-19.923h-2c0 8.145-2.143 14.409-5.753 18.621-3.596 4.195-8.731 6.454-14.947 6.454v2Zm115.652-64.7.961.275.373-1.305-1.356.03.022 1Zm-14.875 9.1-.841-.54-.159.246v.294h1Zm4.9 54.25-.406.914.005.002.401-.916Zm11.55 2.1h1v-.939l-.938-.059-.062.998Zm0 5.425v1h1v-1h-1Zm-53.725 0h-1v1h1v-1Zm0-5.425-.056-.998-.944.052v.946h1Zm7.7-1.225.275.962.013-.004.013-.004-.301-.954Zm4.55-56.525h1v-.047l-.005-.048-.995.095Zm-4.725-9.275.566-.824-.006-.004-.005-.004-.555.832Zm-8.75-2.45h-1v.946l.944.053.056-.999Zm0-5.25-.056-.998-.944.053v.945h1Zm37.275-2.1.707-.707-.317-.317-.446.026.056.998Zm1.225 1.225h1v-.414l-.293-.293-.707.707Zm0 11.725h-1v1h1v-1Zm.35 0v1h.478l.3-.372-.778-.628Zm38.2 2.975c0 8.026-4.965 14.225-12.125 14.225v2c8.59 0 14.125-7.451 14.125-16.225h-2ZM699.326 78.9c-3.452 0-6.445-.802-8.553-2.437-2.069-1.605-3.397-4.098-3.397-7.763h-2c0 4.21 1.559 7.317 4.171 9.343 2.574 1.997 6.055 2.857 9.779 2.857v-2Zm-11.95-10.2c0-3.693 1.009-7.069 1.361-8.3l-1.923-.55c-.348 1.218-1.438 4.843-1.438 8.85h2Zm.378-9.575c-4.214.094-7.74 1.873-10.387 3.904-2.644 2.028-4.469 4.35-5.307 5.655l1.682 1.082c.736-1.145 2.411-3.285 4.842-5.15 2.428-1.864 5.553-3.41 9.214-3.491l-.044-2Zm-15.853 10.1v46.55h2v-46.55h-2Zm0 46.55c0 2.08.474 3.855 1.432 5.317.957 1.461 2.349 2.536 4.062 3.297l.812-1.828c-1.438-.639-2.496-1.489-3.201-2.565-.705-1.076-1.105-2.451-1.105-4.221h-2Zm5.499 8.616c1.526.668 3.823 1.164 6.018 1.515 2.22.355 4.44.578 5.87.667l.125-1.996a63.885 63.885 0 0 1-5.679-.646c-2.18-.349-4.258-.815-5.532-1.372l-.802 1.832Zm10.951 1.184V131h2v-5.425h-2Zm1 4.425h-53.725v2h53.725v-2Zm-52.725 1v-5.425h-2V131h2Zm-.945-4.427c3.214-.178 5.389-.538 7.92-1.261l-.55-1.924c-2.369.677-4.394 1.017-7.481 1.189l.111 1.996Zm7.946-1.269c1.897-.6 3.246-1.725 4.097-3.272.833-1.515 1.152-3.365 1.152-5.382h-2c0 1.833-.294 3.308-.905 4.418-.592 1.078-1.519 1.878-2.946 2.328l.602 1.908Zm5.249-8.654V67.825h-2v48.825h2Zm-.005-48.92c-.366-3.844-2.022-7.851-5.154-10.004l-1.133 1.648c2.469 1.697 3.962 5.04 4.296 8.546l1.991-.19Zm-5.165-10.012c-2.308-1.538-6.008-2.436-9.25-2.617l-.111 1.998c3.058.17 6.358 1.021 8.251 2.283l1.11-1.664Zm-8.305-1.618v-5.25h-2v5.25h2Zm-.944-4.252 37.275-2.1-.112-1.996-37.275 2.1.112 1.996Zm36.512-2.39 1.225 1.224 1.414-1.414-1.225-1.225-1.414 1.414Zm.932.517V61.7h2V49.975h-2Zm1 12.725h.35v-2h-.35v2Zm1.128-.372c7.255-8.983 14.524-13.453 22.672-13.453v-2c-9.002 0-16.784 4.98-24.228 14.197l1.556 1.256Zm22.672-13.453c4.381 0 8.049 1.606 10.625 4.345 2.58 2.742 4.125 6.686 4.125 11.455h2c0-5.206-1.693-9.662-4.669-12.826-2.98-3.168-7.188-4.974-12.081-4.974v2Zm67.58 37.15 1 .024.036-1.488-1.392.53.356.934Zm-.7 28.7.795.606.197-.258.008-.324-1-.024Zm43.575-6.3.999.042.044-1.042h-1.043v1Zm-42.7 13.475.89-.456-.279-.544h-.611v1Zm-.525 0v-1h-.44l-.297.324.737.676Zm-30.275-32.025.349.937.005-.002-.354-.935Zm30.45-10.85.484.875.516-.285v-.59h-1ZM744.331 56.8l-.669-.743-.361.325.032.485.998-.067Zm56.525 51.625v-1h-.973l-.027.973 1 .027ZM763.925 85.09c-6.186 2.353-11.781 4.638-15.807 8.12-4.103 3.545-6.537 8.289-6.537 15.39h2c0-6.549 2.203-10.73 5.844-13.878 3.718-3.213 8.973-5.39 15.211-7.762l-.711-1.87Zm-22.344 23.51c0 4.523 1.085 7.928 2.987 10.22 1.919 2.312 4.578 3.38 7.463 3.38v-2c-2.365 0-4.431-.858-5.924-2.657-1.511-1.821-2.526-4.716-2.526-8.943h-2Zm10.45 13.6c3.148 0 5.528-.745 7.499-2.02 1.946-1.257 3.432-2.993 4.846-4.849l-1.591-1.212c-1.385 1.819-2.699 3.321-4.341 4.382-1.616 1.044-3.611 1.699-6.413 1.699v2Zm12.55-7.451.7-28.7-2-.048-.7 28.7 2 .048Zm41.576-6.366c-.345 8.194-2.325 14.183-5.869 18.12-3.521 3.909-8.727 5.947-15.882 5.947v2c7.545 0 13.364-2.162 17.368-6.609 3.98-4.42 6.026-10.943 6.381-19.374l-1.998-.084Zm-21.751 24.067c-5.547 0-9.456-1.151-12.383-3.054-2.93-1.906-4.973-4.629-6.677-7.952l-1.78.912c1.796 3.502 4.041 6.554 7.367 8.717 3.329 2.165 7.645 3.377 13.473 3.377v-2Zm-19.95-11.55h-.525v2h.525v-2Zm-1.262.324c-2.853 3.113-5.91 5.946-9.915 8.012-3.997 2.062-8.999 3.389-15.773 3.389v2c7.051 0 12.374-1.385 16.689-3.611 4.308-2.222 7.551-5.251 10.473-8.438l-1.474-1.352Zm-25.688 11.401c-11.585 0-20.35-8.187-20.35-19.125h-2c0 12.162 9.785 21.125 22.35 21.125v-2Zm-20.35-19.125c0-7.317 2.076-12.141 5.145-15.54 3.096-3.428 7.288-5.503 11.704-7.148l-.698-1.874c-4.509 1.68-9.068 3.892-12.49 7.682-3.45 3.821-5.661 9.147-5.661 16.88h2Zm16.854-22.69c5.044-1.913 10.95-3.693 16.489-5.474 5.495-1.766 10.666-3.543 14.091-5.436l-.968-1.75c-3.225 1.782-8.204 3.505-13.735 5.282-5.485 1.763-11.479 3.57-16.586 5.508l.709 1.87Zm31.096-11.785V71.15h-2v7.875h2Zm0-7.875c0-2.899-.17-7.482-1.687-11.367-.764-1.955-1.889-3.789-3.557-5.136-1.684-1.36-3.857-2.172-6.606-2.172v2c2.326 0 4.047.676 5.349 1.727 1.318 1.065 2.27 2.567 2.951 4.309 1.37 3.508 1.55 7.763 1.55 10.639h2Zm-11.85-18.675c-4.861 0-7.714 1.89-9.594 3.582L745 57.543c1.62-1.458 4.017-3.068 8.256-3.068v-2Zm-9.923 4.392c.05.756.236 1.587.46 2.437.222.835.515 1.807.777 2.751.542 1.948 1.036 4.073 1.036 6.295h2c0-2.503-.556-4.84-1.109-6.83-.284-1.025-.548-1.89-.77-2.728-.218-.824-.361-1.502-.398-2.059l-1.996.134Zm2.273 11.483c0 3.161-4.13 8.975-13 8.975v2c9.68 0 15-6.436 15-10.975h-2Zm-13 8.975c-4.411 0-7.269-1.406-9.035-3.366-1.785-1.981-2.565-4.65-2.565-7.359h-2c0 3.067.882 6.26 3.079 8.698 2.215 2.458 5.657 4.027 10.521 4.027v-2Zm-11.6-10.725c0-4.907 4.286-9.422 10.914-12.78 6.549-3.317 15.012-5.295 22.561-5.295v-2c-7.851 0-16.626 2.047-23.465 5.511-6.759 3.424-12.01 8.446-12.01 14.564h2Zm33.475-18.075c9.627 0 18.079.8 24.121 4.388 5.916 3.513 9.704 9.823 9.704 21.387h2c0-12.06-4-19.138-10.683-23.107-6.559-3.894-15.519-4.668-25.142-4.668v2ZM788.306 74.3c0 7.944-.262 16.504-.525 23.808-.261 7.284-.525 13.356-.525 16.267h2c0-2.864.261-8.867.524-16.195.263-7.309.526-15.899.526-23.88h-2Zm-1.05 40.075c0 1.122.182 3.312 1.155 5.26.493.986 1.205 1.941 2.229 2.65 1.032.715 2.328 1.14 3.916 1.14v-2c-1.212 0-2.104-.318-2.778-.785-.682-.472-1.196-1.136-1.578-1.9-.776-1.552-.944-3.387-.944-4.365h-2Zm7.3 9.05c2.955 0 4.718-2.463 5.73-5.228 1.037-2.836 1.481-6.459 1.569-9.745l-1.999-.054c-.086 3.189-.517 6.566-1.449 9.112-.957 2.615-2.256 3.915-3.851 3.915v2Zm6.3-14h6.3v-2h-6.3v2Zm69.657 5.825.789.614.211-.271v-.343h-1Zm0-47.425h1v-.142l-.04-.137-.96.279Zm39.9 61.425.063.998.937-.06v-.938h-1Zm-38.5 2.45-.707.707.319.32.451-.029-.063-.998Zm-1.225-1.225h-1v.414l.293.293.707-.707Zm0-7.525h1v-.781l-.758-.189-.242.97Zm-.7-.175.242-.97-.563-.141-.402.42.723.691Zm.525-70.175-.448.894 1.448.724V52.6h-1Zm0-31.15h1v-.047l-.005-.048-.995.095Zm-4.55-10.15.566-.824-.002-.001-.564.825Zm-15.575-3.675h-1v.933l.931.065.069-.998Zm0-5.075-.048-.999-.952.046v.953h1Zm43.925-2.1.707-.707-.313-.313-.442.021.048.999Zm1.225 1.225h1v-.414l-.293-.293-.707.707Zm4.375 120.4-.567.824.006.004.006.004.555-.832Zm10.5 1.925h1v-.946l-.945-.052-.055.998Zm-38.9-8.75V67.825h-2v47.425h2Zm-.04-47.704c-.808-2.783-2.218-6.224-4.676-8.983-2.485-2.79-6.028-4.863-10.984-4.863v2c4.318 0 7.338 1.776 9.49 4.193 2.18 2.447 3.482 5.57 4.249 8.21l1.921-.557ZM855.813 53.7c-5.583 0-10.412 3.716-13.791 10.114-3.381 6.402-5.409 15.634-5.409 27.111h2c0-11.273 1.997-20.154 5.178-26.177 3.183-6.027 7.455-9.048 12.022-9.048v-2Zm-19.2 37.225c0 8.307 1.322 16.531 4.438 22.719 3.136 6.226 8.154 10.481 15.462 10.481v-2c-6.343 0-10.774-3.62-13.676-9.381-2.921-5.8-4.224-13.676-4.224-21.819h-2Zm19.9 33.2c3.498 0 6.265-.833 8.645-2.317 2.357-1.471 4.28-3.548 6.144-5.944l-1.579-1.228c-1.811 2.329-3.563 4.189-5.624 5.475-2.04 1.272-4.435 2.014-7.586 2.014v2Zm53.836 4.127-38.5 2.45.127 1.996 38.5-2.45-.127-1.996Zm-37.729 2.741-1.225-1.225-1.414 1.414 1.225 1.225 1.414-1.414Zm-.932-.518v-7.525h-2v7.525h2Zm-.758-8.495-.7-.175-.485 1.94.7.175.485-1.94Zm-1.665.104c-3.771 3.942-12.276 10.541-22.727 10.541v2c11.248 0 20.243-7.051 24.172-11.159l-1.445-1.382Zm-22.727 10.541c-19.781 0-35.4-16.549-35.4-43.1h-2c0 27.349 16.23 45.1 37.4 45.1v-2Zm-35.4-43.1c0-24.143 18.472-41 38.2-41v-2c-20.872 0-40.2 17.792-40.2 43h2Zm38.2-41c10.614 0 18.671 3.941 20.727 4.97l.895-1.79c-2.143-1.071-10.537-5.18-21.622-5.18v2Zm22.175 4.075V21.45h-2V52.6h2Zm-.005-31.245c-.182-1.915-.638-4.068-1.425-6.011-.78-1.928-1.927-3.75-3.554-4.868l-1.133 1.648c1.173.806 2.126 2.223 2.833 3.97.701 1.732 1.121 3.69 1.288 5.45l1.991-.189Zm-4.981-10.88c-1.834-1.256-4.625-2.118-7.492-2.713-2.901-.603-6.01-.958-8.579-1.135l-.137 1.996c2.507.173 5.522.518 8.309 1.097 2.82.585 5.28 1.386 6.77 2.405l1.129-1.65Zm-15.139-2.85V2.55h-2v5.075h2Zm-.953-4.076 43.925-2.1-.095-1.998-43.925 2.1.095 1.998Zm43.171-2.392 1.225 1.225 1.414-1.414-1.225-1.225-1.414 1.414Zm.932.518V113.5h2V1.675h-2Zm0 111.825c0 2.228.419 4.062 1.257 5.616.838 1.553 2.058 2.757 3.551 3.783l1.133-1.648c-1.307-.899-2.275-1.882-2.924-3.085s-1.017-2.694-1.017-4.666h-2Zm4.82 9.407c1.259.839 3.307 1.296 5.268 1.58 2.016.291 4.155.424 5.731.511l.111-1.996c-1.574-.088-3.635-.217-5.556-.495-1.976-.285-3.603-.703-4.445-1.264l-1.109 1.664ZM909.413 124v5.25h2V124h-2ZM969.307 8.15l.995.1.033-.33-.17-.284-.858.514Zm-17.5 33.775-1-.021V41.925h1Zm0 8.225h-1v1h1v-1Zm21.875 0h1v-1h-1v1Zm0 8.05v1h1v-1h-1Zm-21.7 0v-1h-1v1h1Zm4.9 65.275.371-.929-.008-.003-.363.932Zm11.55 2.1h1v-.946l-.945-.052-.055.998Zm0 5.425v1h1v-1h-1Zm-53.9 0h-1v1h1v-1Zm0-5.425-.055-.998-.945.052v.946h1Zm7.7-1.225.275.962.013-.004.013-.004-.301-.954Zm4.725-66.15h1v-1h-1v1Zm-17.325 0h-1v1h1v-1Zm0-8.05v-1h-1v1h1Zm17.325 0v1h1v-1h-1Zm12.075-37.975.721.693.003-.003-.724-.69Zm53.425 5.95c0 2.127-.88 4.924-2.708 7.18-1.805 2.226-4.508 3.895-8.192 3.895v2c4.366 0 7.613-2.006 9.746-4.636 2.109-2.601 3.154-5.84 3.154-8.439h-2Zm-10.9 11.075c-2.572 0-5.841-.67-8.433-2.22-2.559-1.532-4.392-3.868-4.392-7.28h-2c0 4.288 2.367 7.202 5.365 8.996 2.964 1.773 6.607 2.504 9.46 2.504v-2Zm-12.825-9.5c0-2.096.293-4.038.64-5.922.341-1.856.75-3.724.93-5.529l-1.99-.199c-.17 1.696-.549 3.415-.907 5.366-.354 1.922-.673 4.005-.673 6.284h2Zm1.433-12.064c-.321-.534-.742-1.038-1.382-1.39-.632-.348-1.382-.496-2.276-.496v2c.681 0 1.068.114 1.312.248.234.129.426.325.631.666l1.715-1.028Zm-3.658-1.886c-2.678 0-5.03.697-7.032 2.202-1.989 1.495-3.559 3.73-4.785 6.683-2.44 5.873-3.62 14.83-3.883 27.269l2 .042c.262-12.41 1.444-21.041 3.73-26.544 1.136-2.734 2.519-4.633 4.14-5.851 1.607-1.208 3.52-1.801 5.83-1.801v-2Zm-15.7 36.175v8.225h2v-8.225h-2Zm1 9.225h21.875v-2h-21.875v2Zm20.875-1v8.05h2v-8.05h-2Zm1 7.05h-21.7v2h21.7v-2Zm-22.7 1v57.575h2V58.2h-2Zm0 57.575c0 2.077.473 3.893 1.428 5.376.958 1.488 2.361 2.576 4.11 3.256l.725-1.864c-1.402-.545-2.449-1.382-3.154-2.475-.707-1.099-1.109-2.52-1.109-4.293h-2Zm5.529 8.628c1.416.567 3.604 1.062 5.78 1.436 2.194.376 4.464.644 6.086.734l.11-1.996c-1.528-.085-3.72-.342-5.858-.709-2.155-.371-4.167-.838-5.376-1.321l-.742 1.856Zm10.921 1.172V131h2v-5.425h-2Zm1 4.425h-53.9v2h53.9v-2Zm-52.9 1v-5.425h-2V131h2Zm-.944-4.427c3.213-.178 5.388-.538 7.919-1.261l-.55-1.924c-2.369.677-4.394 1.017-7.48 1.189l.111 1.996Zm7.945-1.269c1.888-.597 3.275-1.713 4.172-3.25.883-1.514 1.252-3.368 1.252-5.404h-2c0 1.814-.331 3.285-.979 4.396-.635 1.088-1.61 1.897-3.047 2.35l.602 1.908Zm5.424-8.654V58.2h-2v58.45h2Zm-1-59.45h-17.325v2h17.325v-2Zm-16.325 1v-8.05h-2v8.05h2Zm-1-7.05h17.325v-2h-17.325v2Zm18.325-1v-2.975h-2v2.975h2Zm0-2.975c0-14.017 3.284-25.455 11.796-34.307l-1.442-1.386c-8.988 9.348-12.354 21.36-12.354 35.693h2Zm11.799-34.31c6.974-7.314 16.331-11.59 29.026-11.59v-2c-13.205 0-23.097 4.474-30.474 12.21l1.448 1.38Zm29.026-11.59c9.648 0 15.537 2.369 19.009 5.575 3.464 3.2 4.666 7.365 4.666 11.275h2c0-4.315-1.335-9.074-5.309-12.744-3.965-3.662-10.414-6.106-20.366-6.106v2Zm96.748 88.775c0 11.953-3.78 22.581-11.16 30.214-7.37 7.626-18.42 12.361-33.16 12.361v2c15.18 0 26.79-4.89 34.6-12.971 7.8-8.072 11.72-19.232 11.72-31.604h-2Zm-44.32 42.575c-11.86 0-22.633-3.951-30.432-11.153-7.79-7.194-12.673-17.684-12.673-30.897h-2c0 13.737 5.093 24.772 13.316 32.366 8.213 7.585 19.489 11.684 31.789 11.684v-2Zm-43.105-42.05c0-12.454 4.247-22.947 11.796-30.326 7.55-7.38 18.489-11.724 32.009-11.724v-2c-13.96 0-25.425 4.493-33.407 12.294-7.982 7.803-12.398 18.835-12.398 31.756h2Zm43.805-42.05c13.78 0 24.67 4.389 32.11 11.721 7.44 7.334 11.51 17.695 11.51 29.804h2c0-12.566-4.24-23.467-12.11-31.228-7.87-7.761-19.3-12.297-33.51-12.297v2Zm17.8 41.35c0-9.133-.83-18.332-3.39-25.283-1.28-3.481-3.02-6.463-5.36-8.583-2.36-2.139-5.3-3.359-8.88-3.359v2c3.07 0 5.54 1.033 7.54 2.842 2.02 1.83 3.61 4.49 4.82 7.79 2.43 6.613 3.27 15.526 3.27 24.593h2Zm-17.63-37.225c-3.79 0-6.88 1.298-9.33 3.527-2.43 2.21-4.21 5.297-5.5 8.833-2.58 7.06-3.32 16.171-3.32 24.515h2c0-8.281.75-17.107 3.2-23.829 1.22-3.355 2.85-6.12 4.96-8.038 2.09-1.9 4.7-3.008 7.99-3.008v-2Zm-18.15 36.875c0 10.365 1.05 20.006 3.79 27.091 2.74 7.102 7.3 11.884 14.36 11.884v-2c-5.88 0-9.9-3.881-12.5-10.604-2.6-6.74-3.65-16.087-3.65-26.371h-2Zm18.15 38.975c6.72 0 11.15-4.662 13.84-11.643 2.69-6.974 3.79-16.526 3.79-26.982h-2c0 10.369-1.1 19.63-3.66 26.262-2.55 6.625-6.44 10.363-11.97 10.363v2Zm106.1-68.375.96.275.38-1.305-1.36.03.02 1Zm-14.87 9.1-.85-.54-.15.246v.294h1Zm4.9 54.25-.41.914.01.002.4-.916Zm11.55 2.1h1v-.939l-.94-.059-.06.998Zm0 5.425v1h1v-1h-1Zm-53.73 0h-1v1h1v-1Zm0-5.425-.05-.998-.95.052v.946h1Zm7.7-1.225.28.962.01-.004.01-.004-.3-.954Zm4.55-56.525h1v-.095l-1 .095Zm-4.72-9.275.56-.824v-.004l-.01-.004-.55.832Zm-8.75-2.45h-1v.946l.94.053.06-.999Zm0-5.25-.06-.998-.94.053v.945h1Zm37.27-2.1.71-.707-.32-.317-.45.026.06.998Zm1.23 1.225h1v-.414l-.3-.293-.7.707Zm0 11.725h-1v1h1v-1Zm.35 0v1h.47l.3-.372-.77-.628Zm38.2 2.975c0 8.026-4.97 14.225-12.13 14.225v2c8.59 0 14.13-7.451 14.13-16.225h-2ZM1139.73 78.9c-3.45 0-6.44-.802-8.55-2.437-2.07-1.605-3.4-4.098-3.4-7.763h-2c0 4.21 1.56 7.317 4.17 9.343 2.58 1.997 6.06 2.857 9.78 2.857v-2Zm-11.95-10.2c0-3.693 1.01-7.069 1.36-8.3l-1.92-.55c-.35 1.218-1.44 4.843-1.44 8.85h2Zm.38-9.575c-4.22.094-7.74 1.873-10.39 3.904-2.64 2.028-4.47 4.35-5.31 5.655l1.69 1.082c.73-1.145 2.41-3.285 4.84-5.15 2.43-1.864 5.55-3.41 9.21-3.491l-.04-2Zm-15.85 10.1v46.55h2v-46.55h-2Zm0 46.55c0 2.08.47 3.855 1.43 5.317.96 1.461 2.35 2.536 4.06 3.297l.81-1.828c-1.44-.639-2.49-1.489-3.2-2.565-.7-1.076-1.1-2.451-1.1-4.221h-2Zm5.5 8.616c1.52.668 3.82 1.164 6.01 1.515 2.22.355 4.44.578 5.87.667l.13-1.996a63.697 63.697 0 0 1-5.68-.646c-2.18-.349-4.26-.815-5.53-1.372l-.8 1.832Zm10.95 1.184V131h2v-5.425h-2Zm1 4.425h-53.73v2h53.73v-2Zm-52.73 1v-5.425h-2V131h2Zm-.94-4.427c3.21-.178 5.38-.538 7.92-1.261l-.55-1.924c-2.37.677-4.4 1.017-7.48 1.189l.11 1.996Zm7.94-1.269c1.9-.6 3.25-1.725 4.1-3.272.83-1.515 1.15-3.365 1.15-5.382h-2c0 1.833-.29 3.308-.9 4.418-.6 1.078-1.52 1.878-2.95 2.328l.6 1.908Zm5.25-8.654V67.825h-2v48.825h2Zm0-48.92c-.37-3.844-2.03-7.851-5.16-10.004l-1.13 1.648c2.47 1.697 3.96 5.04 4.3 8.546l1.99-.19Zm-5.17-10.012c-2.31-1.538-6.01-2.436-9.25-2.617l-.11 1.998c3.06.17 6.36 1.021 8.25 2.283l1.11-1.664Zm-8.3-1.618v-5.25h-2v5.25h2Zm-.95-4.252 37.28-2.1-.12-1.996-37.27 2.1.11 1.996Zm36.51-2.39 1.23 1.224 1.41-1.414-1.22-1.225-1.42 1.414Zm.94.517V61.7h2V49.975h-2Zm1 12.725h.35v-2h-.35v2Zm1.12-.372c7.26-8.983 14.53-13.453 22.68-13.453v-2c-9.01 0-16.79 4.98-24.23 14.197l1.55 1.256Zm22.68-13.453c4.38 0 8.04 1.606 10.62 4.345 2.58 2.742 4.13 6.686 4.13 11.455h2c0-5.206-1.7-9.662-4.67-12.826-2.98-3.168-7.19-4.974-12.08-4.974v2Zm79.81 66.375.79.614.21-.271v-.343h-1Zm0-47.425h1v-.142l-.04-.137-.96.279Zm39.9 61.425.07.998.93-.06v-.938h-1Zm-38.5 2.45-.7.707.32.32.45-.029-.07-.998Zm-1.22-1.225h-1v.414l.29.293.71-.707Zm0-7.525h1v-.781l-.76-.189-.24.97Zm-.7-.175.24-.97-.56-.141-.4.42.72.691Zm.52-70.175-.44.894 1.44.724V52.6h-1Zm0-31.15h1v-.095l-1 .095Zm-4.55-10.15.57-.824v-.001l-.57.825Zm-15.57-3.675h-1v.933l.93.065.07-.998Zm0-5.075-.05-.999-.95.046v.953h1Zm43.92-2.1.71-.707-.31-.313-.44.021.04.999Zm1.23 1.225h1v-.414l-.29-.293-.71.707Zm4.37 120.4-.56.824v.004l.01.004.55-.832Zm10.5 1.925h1v-.946l-.94-.052-.06.998Zm-38.9-8.75V67.825h-2v47.425h2Zm-.04-47.704c-.8-2.783-2.21-6.224-4.67-8.983-2.49-2.79-6.03-4.863-10.99-4.863v2c4.32 0 7.34 1.776 9.49 4.193 2.18 2.447 3.49 5.57 4.25 8.21l1.92-.557ZM1202.22 53.7c-5.58 0-10.41 3.716-13.79 10.114-3.38 6.402-5.41 15.634-5.41 27.111h2c0-11.273 2-20.154 5.18-26.177 3.19-6.027 7.46-9.048 12.02-9.048v-2Zm-19.2 37.225c0 8.307 1.33 16.531 4.44 22.719 3.14 6.226 8.16 10.481 15.46 10.481v-2c-6.34 0-10.77-3.62-13.67-9.381-2.92-5.8-4.23-13.676-4.23-21.819h-2Zm19.9 33.2c3.5 0 6.27-.833 8.65-2.317 2.36-1.471 4.28-3.548 6.14-5.944l-1.58-1.228c-1.81 2.329-3.56 4.189-5.62 5.475-2.04 1.272-4.43 2.014-7.59 2.014v2Zm53.84 4.127-38.5 2.45.13 1.996 38.5-2.45-.13-1.996Zm-37.73 2.741-1.22-1.225-1.42 1.414 1.23 1.225 1.41-1.414Zm-.93-.518v-7.525h-2v7.525h2Zm-.76-8.495-.7-.175-.48 1.94.7.175.48-1.94Zm-1.66.104c-3.77 3.942-12.28 10.541-22.73 10.541v2c11.25 0 20.24-7.051 24.17-11.159l-1.44-1.382Zm-22.73 10.541c-19.78 0-35.4-16.549-35.4-43.1h-2c0 27.349 16.23 45.1 37.4 45.1v-2Zm-35.4-43.1c0-24.143 18.47-41 38.2-41v-2c-20.87 0-40.2 17.792-40.2 43h2Zm38.2-41c10.61 0 18.67 3.941 20.73 4.97l.89-1.79c-2.14-1.071-10.54-5.18-21.62-5.18v2Zm22.17 4.075V21.45h-2V52.6h2Zm0-31.245c-.18-1.915-.64-4.068-1.43-6.011-.78-1.928-1.92-3.75-3.55-4.868l-1.13 1.648c1.17.806 2.12 2.223 2.83 3.97.7 1.732 1.12 3.69 1.29 5.45l1.99-.189Zm-4.98-10.88c-1.84-1.256-4.63-2.118-7.49-2.713-2.9-.603-6.01-.958-8.58-1.135l-.14 1.996c2.51.173 5.52.518 8.31 1.097 2.82.585 5.28 1.386 6.77 2.405l1.13-1.65Zm-15.14-2.85V2.55h-2v5.075h2Zm-.95-4.076 43.92-2.1-.09-1.998-43.93 2.1.1 1.998Zm43.17-2.392 1.22 1.225 1.42-1.414-1.23-1.225-1.41 1.414Zm.93.518V113.5h2V1.675h-2Zm0 111.825c0 2.228.42 4.062 1.26 5.616.83 1.553 2.05 2.757 3.55 3.783l1.13-1.648c-1.31-.899-2.27-1.882-2.92-3.085-.65-1.203-1.02-2.694-1.02-4.666h-2Zm4.82 9.407c1.26.839 3.31 1.296 5.27 1.58 2.01.291 4.15.424 5.73.511l.11-1.996c-1.57-.088-3.64-.217-5.56-.495-1.97-.285-3.6-.703-4.44-1.264l-1.11 1.664Zm10.05 1.093v5.25h2V124h-2Z" mask="url(#a)"/></svg>