<svg xmlns="http://www.w3.org/2000/svg" width="1280" height="187" fill="none"><path fill="#252525" d="M83.485 3.563c7.007 0 14.214 1.001 21.621 3.003 7.474 2.002 11.945 3.003 13.414 3.003 2.135 0 3.737-.534 4.804-1.602 1.068-1.067 2.102-2.536 3.103-4.404h6.206l-10.41 47.947-6.406-1.201c.2-2.87.3-4.538.3-5.005.067-.534.1-1.302.1-2.303 0-10.81-2.536-18.851-7.607-24.123-5.072-5.272-11.511-7.908-19.319-7.908-15.882 0-29.696 10.544-41.44 31.631-10.544 18.818-15.816 38.004-15.816 57.556 0 14.214 3.237 23.957 9.71 29.229 6.54 5.205 13.646 7.807 21.32 7.807 10.01 0 19.453-3.303 28.328-9.909 4.805-3.604 9.609-8.442 14.414-14.514l6.206 4.504c-7.073 10.41-15.482 18.151-25.224 23.223-9.743 5.071-19.62 7.607-29.63 7.607-16.415 0-29.995-4.805-40.74-14.414C5.744 124.014.405 111.101.405 94.952c0-24.69 8.208-46.078 24.624-64.162C41.444 12.639 60.93 3.563 83.485 3.563ZM196.9 69.127c0-2.67-.334-4.838-1.001-6.506-1.268-3.07-3.637-4.605-7.107-4.605-7.407 0-15.015 8.775-22.822 26.326-6.874 15.548-10.31 27.46-10.31 35.735 0 3.27.801 6.106 2.402 8.508 1.668 2.402 3.837 3.603 6.506 3.603 6.807.067 14.515-8.942 23.123-27.026 6.139-15.148 9.209-27.16 9.209-36.035Zm-66.465 50.95c0-15.082 6.006-30.53 18.018-46.346 12.412-16.215 25.024-24.323 37.837-24.323 5.205 0 9.042 1.535 11.511 4.604 1.468 1.869 2.769 5.005 3.904 9.41l3.503-10.911 22.822-1.502-14.514 47.947c-2.068 6.807-3.537 12.012-4.404 15.615-1.802 6.874-2.703 11.778-2.703 14.715 0 1.201.267 2.035.801 2.502.534.467 1.134.701 1.802.701 1.201 0 2.369-.434 3.503-1.301 1.135-.935 2.403-2.236 3.804-3.904.667-.734 1.802-2.102 3.403-4.104a892.164 892.164 0 0 0 4.004-5.205l4.304 3.103c-5.538 8.141-10.844 14.514-15.915 19.118-5.005 4.605-10.077 6.907-15.215 6.907-3.136 0-6.173-1.168-9.109-3.503-2.936-2.336-4.404-5.773-4.404-10.31 0-1.735.867-5.973 2.602-12.713.267-.267 0 .2-.8 1.402-.734 1.201-1.902 2.969-3.504 5.305-3.603 5.472-7.874 10.11-12.812 13.913-4.872 3.804-10.31 5.706-16.316 5.706-5.406 0-10.444-2.035-15.115-6.106-4.671-4.071-7.007-10.978-7.007-20.72Zm104.406-7.307 5.405.4c1.001 10.076 3.57 17.15 7.708 21.221 4.137 4.07 8.208 6.106 12.212 6.106 3.47 0 6.239-1.101 8.308-3.304 2.069-2.202 3.103-4.804 3.103-7.807 0-2.736-.934-5.739-2.803-9.009-1.802-3.27-3.937-6.44-6.406-9.509l-7.608-9.51c-3.336-3.603-6.172-7.807-8.508-12.612-2.335-4.805-3.503-9.61-3.503-14.414 0-6.807 2.569-12.679 7.707-17.617 5.139-4.938 12.112-7.407 20.921-7.407 3.603 0 7.407.767 11.411 2.302 4.004 1.535 6.64 2.302 7.908 2.302 1.601 0 2.802-.367 3.603-1.101.801-.734 1.535-1.802 2.202-3.203h5.906l-4.705 31.33-5.505-.5c-1.268-8.675-3.637-14.915-7.107-18.718-3.403-3.804-7.007-5.706-10.811-5.706-3.803 0-6.606 1.135-8.408 3.403-1.735 2.27-2.602 4.772-2.602 7.508 0 2.402.634 4.771 1.902 7.107 1.334 2.269 3.87 5.772 7.607 10.51l10.01 12.813c2.202 2.802 4.171 6.206 5.906 10.209 1.735 3.938 2.602 7.875 2.602 11.812 0 8.275-2.969 14.948-8.909 20.02-5.939 5.004-13.179 7.507-21.721 7.507-3.603 0-7.474-.734-11.611-2.202-4.071-1.402-6.54-2.102-7.407-2.102-1.669 0-2.937.433-3.804 1.301a10.561 10.561 0 0 0-2.102 3.003h-5.405l4.504-34.133Zm134.836-48.348c0-2.335-.434-4.304-1.302-5.905-.867-1.669-2.435-2.503-4.704-2.503-4.805 0-9.543 3.87-14.214 11.611-4.605 7.741-8.709 18.585-12.312 32.532 11.811-2.669 20.186-7.807 25.124-15.415 4.938-7.607 7.408-14.38 7.408-20.32Zm-61.661 50.65c0-15.482 5.94-30.196 17.818-44.143 12.278-14.414 25.758-21.621 40.439-21.621 6.34 0 11.578 1.568 15.716 4.704 4.204 3.137 6.306 7.574 6.306 13.313 0 8.675-4.872 16.883-14.615 24.624-9.742 7.741-22.388 12.679-37.937 14.815-.4 2.068-.7 4.004-.9 5.805-.201 1.802-.301 3.27-.301 4.405 0 4.204.601 7.507 1.802 9.909 2.135 4.471 6.239 6.707 12.312 6.707 4.938 0 9.843-2.536 14.714-7.608 2.603-2.669 5.406-6.372 8.409-11.11l6.005 3.503c-5.138 8.608-9.976 14.915-14.514 18.918-7.207 6.407-15.648 9.61-25.324 9.61-7.207 0-14.014-2.603-20.42-7.808-6.34-5.272-9.51-13.279-9.51-24.023Zm99.001 54.853c3.47 0 7.507-2.802 12.112-8.408 4.604-5.539 6.907-10.877 6.907-16.016 0-4.671-1.302-14.047-3.904-28.127a883.89 883.89 0 0 0-5.305-26.426c-3.404-15.148-5.94-24.123-7.608-26.926-1.601-2.803-4.771-4.204-9.509-4.204v-5.505c6.339-.601 13.013-1.535 20.019-2.803l9.41-1.702 1.401-.2c1.602 4.738 4.037 14.147 7.307 28.227 3.337 14.014 5.939 26.727 7.808 38.138l.8 4.804 3.804-6.606c3.137-5.339 6.24-11.745 9.309-19.219 3.137-7.474 4.705-12.512 4.705-15.115 0-1.267-.334-2.469-1.001-3.603-.667-1.201-1.769-2.336-3.303-3.403l-1.602-1.102c-1.134-.8-2.202-1.868-3.203-3.203-1.535-2.202-2.302-4.537-2.302-7.006 0-2.937 1.101-5.64 3.303-8.108 2.269-2.536 5.105-3.804 8.508-3.804 3.003 0 5.873 1.101 8.609 3.303 2.736 2.202 4.104 5.772 4.104 10.71 0 8.142-3.837 20.387-11.512 36.736-5.739 12.146-12.412 24.291-20.019 36.436-10.677 16.883-20.353 29.362-29.028 37.436-8.609 8.142-17.351 12.212-26.226 12.212-3.804 0-6.94-1.301-9.409-3.903-2.536-2.536-3.804-5.406-3.804-8.609 0-3.403 1.168-6.106 3.504-8.108 2.335-2.002 4.971-3.003 7.907-3.003 3.07 0 6.54 1.168 10.41 3.504 3.871 2.402 6.473 3.603 7.808 3.603ZM580.594 68.626c10.01-.8 16.85-1.601 20.52-2.402 3.737-.867 7.174-2.703 10.31-5.505 3.938-3.537 6.774-8.442 8.509-14.715 1.134-4.07 1.701-8.107 1.701-12.111 0-6.006-1.268-10.878-3.803-14.615-2.536-3.803-7.541-5.705-15.015-5.705-3.136 0-5.339.734-6.606 2.202-1.202 1.468-2.203 3.737-3.003 6.806l-12.613 46.045Zm-16.115 62.461c0 2.803 1.468 4.705 4.404 5.706 1.668.534 4.271.801 7.808.801 13.012 0 22.355-6.006 28.027-18.018 3.403-7.14 5.105-14.547 5.105-22.221 0-9.41-3.237-15.75-9.71-19.02-3.87-1.934-10.944-3.135-21.22-3.603l-13.513 50.049a21.382 21.382 0 0 0-.701 2.803c-.134 1.001-.2 2.169-.2 3.503Zm-45.845 7.708c4.538-.601 7.741-1.535 9.609-2.803 3.07-2.068 5.406-6.039 7.007-11.911l25.225-91.99c.734-2.736 1.268-5.005 1.601-6.807.334-1.802.501-3.203.501-4.204 0-3.67-1.035-5.972-3.103-6.907-2.069-1-6.006-1.668-11.812-2.002V6.866h55.755c15.348 0 27.226 2.436 35.634 7.307 8.475 4.805 12.713 12.613 12.713 23.423 0 10.477-5.205 18.852-15.615 25.125-5.606 3.403-13.113 6.24-22.522 8.508 8.608 3.07 14.714 6.14 18.317 9.209 6.073 5.138 9.109 12.178 9.109 21.121 0 11.277-4.638 21.187-13.913 29.729-9.276 8.475-24.791 12.712-46.546 12.712h-61.96v-5.205ZM658.374 144c6.006-19.552 10.911-36.369 14.715-50.45 4.137-15.147 6.206-24.156 6.206-27.026 0-2.535-.835-4.17-2.503-4.904-1.668-.734-4.538-1.101-8.608-1.101v-5.406c8.541-.534 15.748-1.234 21.621-2.102 3.804-.534 10.277-1.668 19.419-3.403l-11.411 36.335.901.2c5.872-11.344 10.577-19.385 14.113-24.123 6.206-8.275 12.179-12.412 17.918-12.412 4.004 0 6.94 1.335 8.808 4.004 1.936 2.67 2.903 5.639 2.903 8.908 0 3.938-1.067 7.474-3.203 10.61-2.069 3.137-4.971 4.705-8.708 4.705-1.669 0-3.237-.333-4.705-1-1.401-.668-2.603-1.669-3.603-3.003l-1.902-2.403a5.18 5.18 0 0 0-1.101-1c-.334-.268-.801-.401-1.402-.401-2.602 0-6.006 3.537-10.21 10.61-4.204 7.074-7.741 14.28-10.61 21.621-2.002 5.072-4.471 12.279-7.407 21.621-2.937 9.343-5.105 16.049-6.507 20.12h-24.724Zm142.243-74.873c0-2.67-.334-4.838-1.001-6.506-1.268-3.07-3.637-4.605-7.107-4.605-7.407 0-15.015 8.775-22.822 26.326-6.874 15.548-10.31 27.46-10.31 35.735 0 3.27.801 6.106 2.402 8.508 1.668 2.402 3.837 3.603 6.506 3.603 6.807.067 14.515-8.942 23.123-27.026 6.139-15.148 9.209-27.16 9.209-36.035Zm-66.465 50.95c0-15.082 6.006-30.53 18.018-46.346 12.412-16.215 25.024-24.323 37.837-24.323 5.205 0 9.042 1.535 11.511 4.604 1.468 1.869 2.769 5.005 3.904 9.41l3.503-10.911 22.822-1.502-14.514 47.947c-2.068 6.807-3.537 12.012-4.404 15.615-1.802 6.874-2.703 11.778-2.703 14.715 0 1.201.267 2.035.801 2.502.534.467 1.135.701 1.802.701 1.201 0 2.369-.434 3.503-1.301 1.135-.935 2.403-2.236 3.804-3.904.667-.734 1.802-2.102 3.403-4.104a892.164 892.164 0 0 0 4.004-5.205l4.304 3.103c-5.538 8.141-10.844 14.514-15.915 19.118-5.005 4.605-10.077 6.907-15.215 6.907-3.136 0-6.173-1.168-9.109-3.503-2.936-2.336-4.404-5.773-4.404-10.31 0-1.735.867-5.973 2.602-12.713.267-.267 0 .2-.8 1.402-.734 1.201-1.902 2.969-3.504 5.305-3.603 5.472-7.874 10.11-12.812 13.913-4.872 3.804-10.31 5.706-16.316 5.706-5.406 0-10.444-2.035-15.115-6.106-4.671-4.071-7.007-10.978-7.007-20.72Zm123.825-.201c0 3.604.767 6.54 2.302 8.809 1.602 2.202 3.737 3.303 6.406 3.303 8.075 0 15.916-9.509 23.523-28.528 6.407-15.815 9.61-27.426 9.61-34.834 0-2.602-.334-4.704-1.001-6.306-1.268-2.936-3.604-4.404-7.007-4.404-7.607 0-15.348 8.475-23.223 25.425-7.073 15.148-10.61 27.326-10.61 36.535Zm30.129-70.468c3.737 0 6.974.767 9.71 2.302 1.601.934 3.336 2.369 5.205 4.304l9.109-33.733c.2-.667.333-1.334.4-2.002.067-.667.1-1.301.1-1.902 0-2.402-.734-4.037-2.202-4.904-1.468-.868-3.537-1.302-6.206-1.302h-4.204V6.666l8.809-.8c6.873-.601 12.178-1.202 15.915-1.803 3.737-.6 9.81-1.701 18.218-3.303l-22.822 82.981c-1.802 6.473-4.205 15.382-7.207 26.726-3.003 11.278-4.505 17.484-4.505 18.618 0 1.001.234 1.735.701 2.203.534.467 1.168.7 1.902.7 1.535 0 3.637-1.635 6.306-4.905 2.736-3.336 5.105-6.606 7.107-9.809l4.504 3.303c-5.405 8.008-9.809 13.714-13.213 17.117-5.939 6.006-11.711 9.009-17.317 9.009-2.936 0-5.438-.734-7.507-2.203-3.27-2.202-4.905-5.939-4.905-11.21 0-.868.167-2.369.501-4.505.4-2.202.934-4.938 1.601-8.208-4.938 8.008-9.209 13.747-12.812 17.217-6.273 6.073-13.213 9.109-20.82 9.109-6.006 0-11.178-2.302-15.516-6.907-4.27-4.671-6.406-11.645-6.406-20.92 0-14.615 6.073-29.796 18.218-45.545 12.412-16.082 24.857-24.123 37.336-24.123ZM918.54 186.34c-6.273 0-11.211-1.601-14.814-4.804-3.671-3.204-5.506-7.074-5.506-11.612 0-3.27 1.101-5.905 3.303-7.907 2.136-2.002 4.572-3.003 7.308-3.003 2.669 0 5.071.901 7.207 2.702 2.068 1.869 3.103 4.371 3.103 7.508 0 1.668-.534 3.303-1.602 4.904-1.134 1.669-1.702 2.803-1.702 3.404 0 .734.367 1.301 1.101 1.701.668.401 1.502.601 2.503.601 5.138 0 9.042-4.104 11.711-12.312 2.67-8.141 8.208-31.965 16.617-71.47l8.408-35.534h-15.015l1.902-8.509h15.015c1.201-5.071 3.737-11.945 7.607-20.62 3.937-8.742 8.942-15.782 15.015-21.12 7.34-6.34 14.881-9.51 22.619-9.51 6.21 0 11.28 1.402 15.22 4.204 4 2.803 6 6.974 6 12.513 0 3.27-1.03 5.905-3.1 7.907-2 1.936-4.4 2.903-7.21 2.903-2.73 0-5.1-.967-7.1-2.903-2.01-1.935-3.01-4.204-3.01-6.806 0-1.802.54-3.637 1.61-5.506 1.13-1.935 1.7-3.07 1.7-3.403 0-.467-.24-1.068-.7-1.802-.54-.667-1.47-1-2.81-1-3.73 0-7.137 2.602-10.207 7.807-3.003 5.205-5.805 12.812-8.408 22.822l-3.804 14.514h19.019l-1.902 8.509H980.1c-9.743 47.913-17.784 79.344-24.123 94.292-8.942 21.02-21.421 31.53-37.437 31.53Zm138.44-136.733c6.94 0 13.15 1.568 18.62 4.705 9.61 5.471 14.41 14.78 14.41 27.927 0 14.547-5.54 28.661-16.61 42.341-12.08 14.881-25.9 22.322-41.45 22.322-7.94 0-15.48-2.469-22.62-7.407-7.07-4.939-10.608-13.28-10.608-25.025 0-14.614 5.508-28.761 16.518-42.441 12.08-14.948 25.99-22.422 41.74-22.422Zm-33.83 76.875c0 3.537.43 6.306 1.3 8.308 1.67 3.804 4.8 5.706 9.41 5.706 8.54 0 16.21-9.81 23.02-29.429 5.67-16.483 8.51-30.73 8.51-42.742 0-3.203-.4-5.705-1.2-7.507-1.54-3.337-4.41-5.005-8.61-5.005-9.81 0-18.05 10.41-24.73 31.23-5.13 15.816-7.7 28.962-7.7 39.439ZM1093.52 144c6-19.552 10.91-36.369 14.71-50.45 4.14-15.147 6.21-24.156 6.21-27.026 0-2.535-.83-4.17-2.5-4.904s-4.54-1.101-8.61-1.101v-5.406c8.54-.534 15.75-1.234 21.62-2.102 3.8-.534 10.28-1.668 19.42-3.403l-11.41 36.335.9.2c5.87-11.344 10.58-19.385 14.11-24.123 6.21-8.275 12.18-12.412 17.92-12.412 4 0 6.94 1.335 8.81 4.004 1.93 2.67 2.9 5.639 2.9 8.908 0 3.938-1.07 7.474-3.2 10.61-2.07 3.137-4.97 4.705-8.71 4.705-1.67 0-3.24-.333-4.71-1-1.4-.668-2.6-1.669-3.6-3.003l-1.9-2.403c-.33-.4-.7-.734-1.1-1-.34-.268-.8-.401-1.4-.401-2.61 0-6.01 3.537-10.21 10.61-4.21 7.074-7.74 14.28-10.61 21.621-2.01 5.072-4.47 12.279-7.41 21.621-2.94 9.343-5.11 16.049-6.51 20.12h-24.72Zm101.2-24.124c0 3.604.77 6.54 2.3 8.809 1.61 2.202 3.74 3.303 6.41 3.303 8.07 0 15.92-9.509 23.52-28.528 6.41-15.815 9.61-27.426 9.61-34.834 0-2.602-.33-4.704-1-6.306-1.27-2.936-3.6-4.404-7.01-4.404-7.6 0-15.34 8.475-23.22 25.425-7.07 15.148-10.61 27.326-10.61 36.535Zm30.13-70.468c3.74 0 6.97.767 9.71 2.302 1.6.934 3.34 2.369 5.21 4.304l9.1-33.733c.2-.667.34-1.334.4-2.002.07-.667.1-1.301.1-1.902 0-2.402-.73-4.037-2.2-4.904-1.47-.868-3.53-1.302-6.2-1.302h-4.21V6.666l8.81-.8c6.87-.601 12.18-1.202 15.92-1.803 3.73-.6 9.81-1.701 18.21-3.303l-22.82 82.981c-1.8 6.473-4.2 15.382-7.2 26.726-3.01 11.278-4.51 17.484-4.51 18.618 0 1.001.23 1.735.7 2.203.54.467 1.17.7 1.9.7 1.54 0 3.64-1.635 6.31-4.905 2.74-3.336 5.1-6.606 7.11-9.809l4.5 3.303c-5.4 8.008-9.81 13.714-13.21 17.117-5.94 6.006-11.71 9.009-17.32 9.009-2.94 0-5.44-.734-7.51-2.203-3.27-2.202-4.9-5.939-4.9-11.21 0-.868.17-2.369.5-4.505.4-2.202.93-4.938 1.6-8.208-4.94 8.008-9.21 13.747-12.81 17.217-6.27 6.073-13.21 9.109-20.82 9.109-6.01 0-11.18-2.302-15.52-6.907-4.27-4.671-6.4-11.645-6.4-20.92 0-14.615 6.07-29.796 18.21-45.545 12.42-16.082 24.86-24.123 37.34-24.123Z"/></svg>