<svg xmlns="http://www.w3.org/2000/svg" width="1257" height="171" fill="none"><path fill="#000" d="M114.35 100.725c-8.4 17.85-24.675 32.9-51.275 32.9-34.65 0-62.125-22.575-62.125-60.9 0-37.975 27.125-64.05 64.925-64.05 13.825 0 23.625 4.025 31.5 8.225l4.9-7h6.825l.7 45.325h-7.35c-8.575-26.775-18.9-39.2-35.7-39.2-21.35 0-33.425 19.775-33.425 53.55 0 37.1 15.05 52.85 36.4 52.85 18.2 0 28.875-9.1 38.85-24.5l5.775 2.8ZM171.434 86.025c-12.425 4.725-21.7 8.925-21.7 22.575 0 8.75 4.2 12.6 9.45 12.6 5.95 0 8.75-2.8 11.55-6.475l.7-28.7Zm42.875 22.4c-.7 16.625-8.05 25.025-22.75 25.025-11.375 0-16.45-4.725-19.95-11.55h-.525c-5.775 6.3-12.6 11.725-26.425 11.725-12.075 0-21.35-8.575-21.35-20.125 0-15.05 8.575-20.3 17.5-23.625 10.15-3.85 23.8-7.175 30.45-10.85V71.15c0-5.775-.7-17.675-10.85-17.675-4.55 0-7.175 1.75-8.925 3.325.175 2.625 2.275 6.825 2.275 11.55 0 3.85-4.725 9.975-14 9.975s-12.6-5.95-12.6-11.725c0-11.025 19.075-19.075 34.475-19.075 19.25 0 34.825 3.15 34.825 26.775 0 15.925-1.05 34.3-1.05 40.075 0 2.1.7 8.05 6.3 8.05 4.55 0 6.125-7.525 6.3-14h6.3ZM286.045 106.5c0 17.675-15.4 27.3-34.475 27.3-11.2 0-21-4.725-24.675-7.35l-2.625 5.6h-5.775l-.875-29.925h5.25c3.15 9.975 13.825 25.2 27.475 25.2 8.925 0 13.825-4.725 13.825-12.775 0-8.925-8.225-11.725-20.475-15.75-11.2-3.675-23.8-9.975-23.8-26.25 0-13.65 11.725-25.025 31.675-25.025 8.05 0 16.625 2.45 21.7 4.9l1.925-4.9h5.6l1.225 27.3h-5.25c-3.325-11.2-12.6-20.65-22.4-20.65-7.525 0-12.6 4.55-12.6 10.675 0 8.75 6.3 10.85 20.125 15.225 14.175 4.55 24.15 12.075 24.15 26.425ZM377.979 111.4c-7 12.425-21 22.225-37.975 22.225-30.275 0-44.1-19.25-44.1-43.575 0-22.225 15.575-42.525 42.175-42.525 27.65 0 37.625 16.1 37.625 34.65v4.9h-53.025c0 22.75 8.05 35.175 26.075 35.175 10.5 0 17.675-5.25 23.45-15.05l5.775 4.2Zm-28.7-30.975c0-13.65-2.1-26.425-12.25-26.425-8.225 0-14 8.925-14.35 26.775l26.6-.35ZM471.518 54.875c-4.725.875-9.8 3.675-12.6 9.975-7.175 16.45-14 33.25-19.25 46.375-4.025 9.975-7.525 18.375-9.275 22.4-15.225 34.3-23.625 37.1-36.05 37.1-6.125 0-15.925-4.025-15.925-15.05 0-5.95 4.725-13.125 12.6-13.125 4.9 0 11.9 2.275 11.9 11.2v5.425c9.45-1.925 18.025-18.725 20.65-25.55-8.75-19.075-26.775-57.925-32.2-69.65-2.1-4.375-7.525-8.05-12.6-8.75V49.8h48.3v5.6c-4.025.175-9.975 1.225-9.975 4.025 0 .35.525 1.925 1.225 3.675 3.325 7.875 9.8 22.4 17.325 38.85h1.05c5.425-12.95 8.225-20.3 14.175-35.525.525-1.225.875-3.5.875-4.9 0-3.85-9.275-6.125-12.075-6.475V49.8h31.85v5.075ZM625.149 98.625c0 24.325-20.125 32.375-53.725 32.375h-61.075v-5.95c3.15-.175 11.55-1.05 13.825-1.925 4.2-1.575 5.425-4.725 5.425-8.575V28.975c0-3.85-1.05-6.825-5.425-8.575-3.325-1.4-10.675-2.8-13.825-2.975v-5.95h63.875c28.175 0 44.625 7.175 44.625 26.6 0 16.625-14.175 23.8-30.625 27.825v1.575c17.675 1.925 36.925 10.85 36.925 31.15ZM588.049 40c0-15.225-8.75-21.35-21.7-21.35-1.925 0-5.775.175-7.875.35v44.975h3.85c19.25 0 25.725-9.275 25.725-23.975Zm5.775 57.75c0-16.975-9.8-26.25-27.825-26.25-1.925 0-6.125.175-7.525.35v44.45c.875 4.2 6.65 7.525 13.65 7.525 12.95 0 21.7-9.45 21.7-26.075ZM712.451 64.675c0 8.4-5.25 15.225-13.125 15.225-7.175 0-12.95-3.325-12.95-11.2 0-3.85 1.05-7.35 1.4-8.575-7.875.175-13.3 6.65-14.875 9.1v46.55c0 3.85 1.75 6.3 4.9 7.7 2.8 1.225 8.75 1.925 11.55 2.1V131h-53.725v-5.425c3.15-.175 5.25-.525 7.7-1.225 3.325-1.05 4.55-3.85 4.55-7.7V67.825c-.35-3.675-1.925-7.35-4.725-9.275-2.1-1.4-5.6-2.275-8.75-2.45v-5.25l37.275-2.1 1.225 1.225V61.7h.35c7.35-9.1 14.875-13.825 23.45-13.825 9.275 0 15.75 6.825 15.75 16.8ZM764.281 86.025c-12.425 4.725-21.7 8.925-21.7 22.575 0 8.75 4.2 12.6 9.45 12.6 5.95 0 8.75-2.8 11.55-6.475l.7-28.7Zm42.875 22.4c-.7 16.625-8.05 25.025-22.75 25.025-11.375 0-16.45-4.725-19.95-11.55h-.525c-5.775 6.3-12.6 11.725-26.425 11.725-12.075 0-21.35-8.575-21.35-20.125 0-15.05 8.575-20.3 17.5-23.625 10.15-3.85 23.8-7.175 30.45-10.85V71.15c0-5.775-.7-17.675-10.85-17.675-4.55 0-7.175 1.75-8.925 3.325.175 2.625 2.275 6.825 2.275 11.55 0 3.85-4.725 9.975-14 9.975s-12.6-5.95-12.6-11.725c0-11.025 19.075-19.075 34.475-19.075 19.25 0 34.825 3.15 34.825 26.775 0 15.925-1.05 34.3-1.05 40.075 0 2.1.7 8.05 6.3 8.05 4.55 0 6.125-7.525 6.3-14h6.3ZM870.513 115.25V67.825c-1.575-5.425-5.425-13.125-14.7-13.125-10.15 0-18.2 13.475-18.2 36.225 0 16.45 5.25 32.2 18.9 32.2 6.65 0 10.325-3.15 14-7.875Zm39.9 14-38.5 2.45-1.225-1.225v-7.525l-.7-.175c-3.85 4.025-12.6 10.85-23.45 10.85-20.475 0-36.4-17.15-36.4-44.1 0-24.675 18.9-42 39.2-42 10.85 0 19.075 4.025 21.175 5.075V21.45c-.35-3.675-1.75-8.225-4.55-10.15-3.325-2.275-10.5-3.325-15.575-3.675V2.55l43.925-2.1 1.225 1.225V113.5c0 4.2 1.575 6.65 4.375 8.575 2.1 1.4 7.35 1.75 10.5 1.925v5.25ZM993.457 18.125c0 4.725-3.85 12.075-11.9 12.075-5.425 0-13.825-2.8-13.825-10.5 0-4.375 1.225-8.05 1.575-11.55-.525-.875-1.225-1.4-2.8-1.4-9.975 0-14.175 10.325-14.7 35.175v8.225h21.875v8.05h-21.7v57.575c0 3.85 1.75 6.475 4.9 7.7 2.625 1.05 8.4 1.925 11.55 2.1V131h-53.9v-5.425c3.15-.175 5.25-.525 7.7-1.225 3.325-1.05 4.725-3.85 4.725-7.7V58.2h-17.325v-8.05h17.325v-2.975c0-14.175 3.325-25.9 12.075-35 7.175-7.525 16.8-11.9 29.75-11.9 19.6 0 24.675 9.625 24.675 17.85Z"/><path fill="#000" d="M1066.53 90.05c0 24.325-15.4 43.575-45.32 43.575-24.155 0-44.105-16.1-44.105-43.05 0-25.375 17.325-43.05 44.805-43.05 28 0 44.62 17.85 44.62 42.525Zm-27.82-.175c0-18.2-3.33-36.225-16.63-36.225-14.17 0-17.15 19.25-17.15 35.875 0 20.65 4.2 37.975 17.15 37.975 12.25 0 16.63-16.8 16.63-37.625ZM1152.86 64.675c0 8.4-5.25 15.225-13.13 15.225-7.17 0-12.95-3.325-12.95-11.2 0-3.85 1.05-7.35 1.4-8.575-7.87.175-13.3 6.65-14.87 9.1v46.55c0 3.85 1.75 6.3 4.9 7.7 2.8 1.225 8.75 1.925 11.55 2.1V131h-53.73v-5.425c3.15-.175 5.25-.525 7.7-1.225 3.33-1.05 4.55-3.85 4.55-7.7V67.825c-.35-3.675-1.92-7.35-4.72-9.275-2.1-1.4-5.6-2.275-8.75-2.45v-5.25l37.27-2.1 1.23 1.225V61.7h.35c7.35-9.1 14.87-13.825 23.45-13.825 9.27 0 15.75 6.825 15.75 16.8ZM1216.92 115.25V67.825c-1.57-5.425-5.42-13.125-14.7-13.125-10.15 0-18.2 13.475-18.2 36.225 0 16.45 5.25 32.2 18.9 32.2 6.65 0 10.33-3.15 14-7.875Zm39.9 14-38.5 2.45-1.22-1.225v-7.525l-.7-.175c-3.85 4.025-12.6 10.85-23.45 10.85-20.48 0-36.4-17.15-36.4-44.1 0-24.675 18.9-42 39.2-42 10.85 0 19.07 4.025 21.17 5.075V21.45c-.35-3.675-1.75-8.225-4.55-10.15-3.32-2.275-10.5-3.325-15.57-3.675V2.55l43.92-2.1 1.23 1.225V113.5c0 4.2 1.57 6.65 4.37 8.575 2.1 1.4 7.35 1.75 10.5 1.925v5.25Z"/></svg>